<svg width="146" height="146" viewBox="0 0 146 146" fill="none" xmlns="http://www.w3.org/2000/svg">
<rect x="1" y="1" width="144" height="144" rx="24" fill="white" stroke="#EBEFF6" stroke-width="1.5"/>
<path d="M86.9968 45.5909V99.5908C86.9968 105.638 91.1641 109 95.5871 109C99.6777 109 104.177 106.136 104.177 99.5908V46C104.177 40.4645 100.087 37 95.5871 37C91.0874 37 86.9968 40.8224 86.9968 45.5909Z" fill="#F8AB00"/>
<path d="M64.4984 72.9995V99.5904C64.4984 105.637 68.6657 109 73.0887 109C77.1793 109 81.6789 106.136 81.6789 99.5904V73.4086C81.6789 67.8731 77.5883 64.4087 73.0887 64.4087C68.589 64.4087 64.4984 68.2311 64.4984 72.9995Z" fill="#E37300"/>
<path d="M59.1805 100.409C59.1805 105.152 55.3328 109 50.5903 109C45.8477 109 42 105.152 42 100.409C42 95.6662 45.8477 91.8182 50.5903 91.8182C55.3328 91.8182 59.1805 95.6662 59.1805 100.409Z" fill="#E37300"/>
</svg>
