<svg width="144" height="144" viewBox="0 0 144 144" fill="none" xmlns="http://www.w3.org/2000/svg">
<rect width="144" height="144" rx="24" fill="#000008"/>
<path d="M71.6699 71.9993C71.6699 64.6357 77.6393 58.666 85.0031 58.666C92.3667 58.666 98.3363 64.6357 98.3363 71.9993C98.3363 79.3632 92.3667 85.3326 85.0031 85.3326C77.6393 85.3326 71.6699 79.3632 71.6699 71.9993Z" fill="#1ABCFE"/>
<path d="M45 98.6663C45 91.3027 50.9695 85.333 58.3332 85.333H71.6663V98.6663C71.6663 106.03 65.6969 112 58.3332 112C50.9695 112 45 106.03 45 98.6663Z" fill="#0ACF83"/>
<path d="M71.6699 32V58.6665H85.0031C92.3669 58.6665 98.3363 52.6971 98.3363 45.3333C98.3363 37.9695 92.3669 32 85.0031 32H71.6699Z" fill="#FF7262"/>
<path d="M45 45.3333C45 52.6971 50.9695 58.6665 58.3332 58.6665H71.6663V32H58.3332C50.9695 32 45 37.9695 45 45.3333Z" fill="#F24E1E"/>
<path d="M45 71.9993C45 79.3632 50.9695 85.3326 58.3332 85.3326H71.6663V58.666H58.3332C50.9695 58.666 45 64.6357 45 71.9993Z" fill="#A259FF"/>
</svg>
