<svg width="146" height="146" viewBox="0 0 146 146" fill="none" xmlns="http://www.w3.org/2000/svg">
<rect x="1" y="1" width="144" height="144" rx="24" fill="white" stroke="#EBEFF6" stroke-width="1.5"/>
<path d="M60.2234 45.2038C60.9966 43.1741 62.0598 41.3054 63.6385 39.7912C69.9533 33.6374 80.3921 35.1839 84.6771 42.9163C87.899 48.7801 91.3141 54.515 94.6326 60.3143C100.174 69.9476 105.78 79.5809 111.257 89.2464C115.865 97.3332 110.871 107.546 101.721 108.932C96.1146 109.769 90.863 107.192 87.9634 102.166C83.0984 93.6925 78.2012 85.2191 73.3362 76.7779C73.2396 76.5846 73.1107 76.4235 72.9818 76.2624C72.4663 75.8435 72.2408 75.2314 71.9186 74.6837C69.76 70.8819 67.5369 67.1124 65.3783 63.3428C63.9929 60.8942 62.5431 58.4778 61.1577 56.0292C59.9012 53.8384 59.3213 51.4542 59.3857 48.9412C59.4823 47.6524 59.6434 46.3637 60.2234 45.2038Z" fill="#4285F4"/>
<path d="M60.2234 45.2036C59.9334 46.3635 59.6757 47.5233 59.6112 48.7476C59.5146 51.454 60.1912 53.967 61.5443 56.319C65.0884 62.4082 68.6324 68.5297 72.1442 74.6512C72.4664 75.1989 72.7241 75.7466 73.0463 76.2621C71.1132 79.6129 69.1801 82.9313 67.2148 86.2821C64.5084 90.9537 61.8021 95.6576 59.0635 100.329C58.9347 100.329 58.9024 100.265 58.8702 100.168C58.838 99.9104 58.9347 99.6849 58.9991 99.4272C60.32 94.5944 59.2246 90.3094 55.9061 86.6365C53.8764 84.4134 51.2989 83.1569 48.3348 82.738C44.4686 82.1903 41.0535 83.1891 37.9927 85.6055C37.445 86.0243 37.0906 86.6365 36.4462 86.9586C36.3174 86.9586 36.2529 86.8942 36.2207 86.7976C37.7672 84.1234 39.2814 81.4493 40.8279 78.7752C47.2072 67.692 53.5864 56.6089 59.9979 45.558C60.0623 45.4291 60.159 45.3325 60.2234 45.2036Z" fill="#FBBC05"/>
<path d="M36.35 86.8946C36.9621 86.3469 37.5421 85.767 38.1864 85.2515C46.0155 79.0655 57.7752 83.5439 59.4828 93.3383C59.9016 95.6902 59.6761 97.9455 58.9673 100.201C58.9351 100.394 58.9029 100.555 58.8384 100.749C58.5485 101.264 58.2907 101.812 57.9685 102.327C55.1011 107.063 50.8805 109.415 45.3389 109.061C38.9919 108.61 33.9981 103.841 33.1282 97.5267C32.7093 94.4659 33.3215 91.5985 34.9002 88.9566C35.2224 88.3766 35.609 87.8612 35.9634 87.2812C36.1245 87.1523 36.06 86.8946 36.35 86.8946Z" fill="#34A853"/>
<path d="M36.3496 86.8945C36.2208 87.0234 36.2208 87.2489 35.9952 87.2811C35.963 87.0556 36.0919 86.9267 36.2208 86.7656L36.3496 86.8945Z" fill="#FBBC05"/>
</svg>
