<svg width="80" height="79" viewBox="0 0 80 79" fill="none" xmlns="http://www.w3.org/2000/svg">
<path d="M65.8333 0H14.1667C6.34263 0 0 6.34297 0 14.1674V63.8368C0 71.6612 6.34263 78.0042 14.1667 78.0042H65.8333C73.6574 78.0042 80 71.6612 80 63.8368V14.1674C80 6.34297 73.6574 0 65.8333 0Z" fill="#330000"/>
<path d="M38.765 46.8143H26.3681L23.8458 54.6501C23.8114 54.793 23.7282 54.9194 23.6107 55.0076C23.4931 55.0958 23.3485 55.1402 23.2017 55.1331H16.9227C16.5647 55.1331 16.4394 54.9364 16.5471 54.5428L27.2803 23.6291C27.3877 23.3071 27.4951 22.9404 27.6024 22.5289C27.7428 21.8128 27.8147 21.085 27.8171 20.3553C27.8098 20.3043 27.8145 20.2523 27.8308 20.2033C27.8471 20.1544 27.8746 20.11 27.911 20.0735C27.9475 20.0371 27.9919 20.0096 28.0408 19.9933C28.0897 19.977 28.1417 19.9723 28.1928 19.9796H36.7256C36.9756 19.9796 37.1188 20.069 37.155 20.248L49.3375 54.5964C49.4447 54.9545 49.3373 55.1334 49.0154 55.1331H42.0386C41.9188 55.1464 41.7983 55.1156 41.6995 55.0465C41.6007 54.9773 41.5305 54.8746 41.502 54.7575L38.765 46.8143ZM28.3 40.052H36.7794C36.5647 39.3367 36.3142 38.5317 36.0281 37.6368C35.7413 36.7429 35.4372 35.7858 35.1158 34.7655C34.7937 33.7458 34.4716 32.7261 34.1496 31.7063C33.8277 30.6867 33.5326 29.7027 33.2642 28.7545C32.9958 27.807 32.7544 26.9393 32.5398 26.1516H32.4861C32.1839 27.6011 31.8078 29.0341 31.3591 30.4451C30.8576 32.0552 30.3478 33.7011 29.8295 35.3827C29.3105 37.0649 28.8006 38.6214 28.3 40.052Z" fill="#FF9A00"/>
<path d="M56.5912 25.6687C56.0438 25.6907 55.498 25.5969 54.9893 25.3934C54.4807 25.19 54.0207 24.8814 53.6395 24.488C53.2593 24.0775 52.9641 23.5959 52.7706 23.0709C52.5772 22.5459 52.4894 21.9879 52.5124 21.4288C52.4929 20.8753 52.5904 20.324 52.7984 19.8107C53.0065 19.2974 53.3205 18.8338 53.7199 18.4502C54.1155 18.0705 54.5824 17.773 55.0936 17.5749C55.6049 17.3769 56.1503 17.2822 56.6984 17.2963C57.9865 17.2963 58.9973 17.6809 59.7307 18.4502C60.1009 18.8499 60.3886 19.3188 60.5774 19.8299C60.7661 20.3411 60.8522 20.8844 60.8308 21.4288C60.8532 21.9901 60.7626 22.5501 60.5644 23.0756C60.3662 23.6011 60.0644 24.0814 59.6769 24.488C59.272 24.8872 58.7887 25.1982 58.2577 25.4014C57.7266 25.6046 57.1592 25.6957 56.5912 25.6687ZM52.8881 54.5966V28.9425C52.8881 28.6206 53.0306 28.4595 53.3174 28.4595H59.9185C60.2045 28.4595 60.3476 28.6205 60.3478 28.9425V54.5966C60.3478 54.9547 60.2047 55.1336 59.9185 55.1333H53.3711C53.0492 55.1333 52.8882 54.9544 52.8881 54.5966Z" fill="#FF9A00"/>
</svg>
