<svg width="144" height="144" viewBox="0 0 144 144" fill="none" xmlns="http://www.w3.org/2000/svg">
<g clip-path="url(#clip0_2089_5402)">
<path d="M120 0H24C10.7452 0 0 10.7452 0 24V120C0 133.255 10.7452 144 24 144H120C133.255 144 144 133.255 144 120V24C144 10.7452 133.255 0 120 0Z" fill="white"/>
<path opacity="0.54" d="M27.0252 104L41.0383 104.005L41.0367 106.776C37.3709 106.776 33.7036 106.765 30.0362 106.781C29.756 106.874 29.8883 107.227 29.8568 107.443L29.8678 114.897C29.9607 115.177 30.3132 115.042 30.5304 115.077L39.9365 115.073V117.841C37.0121 117.839 34.0892 117.839 31.1647 117.841C30.7303 117.839 30.2912 117.812 29.8615 117.886L29.8284 128.409C28.8856 128.371 27.9444 128.406 27.0016 128.385L27 104.447L27.0252 104ZM44.4365 104.005H47.3138L47.3153 120.566L47.2838 128.365C46.3473 128.347 45.4108 128.342 44.4759 128.368C44.4035 127.982 44.4334 127.59 44.4334 127.201L44.4365 104.005ZM72.5981 106.058L75.4848 106.06L75.4895 110.961C76.9014 110.995 78.3211 110.897 79.7298 111.01C79.6905 111.889 79.7235 112.768 79.7078 113.647C78.3038 113.65 76.9014 113.661 75.499 113.64L75.4879 123.401C75.5178 124.305 75.7099 125.397 76.585 125.864C77.5845 126.434 78.8122 126.166 79.7581 125.615V128.455C78.7162 128.929 77.5278 128.986 76.4087 128.832C74.8316 128.591 73.3206 127.511 72.8437 125.941C72.5273 125.081 72.5997 124.153 72.5934 123.255L72.5871 113.749L72.5163 113.669C71.5199 113.615 70.5205 113.677 69.5226 113.642C69.5289 112.747 69.4879 111.852 69.5446 110.959C70.5582 110.942 71.5766 111.005 72.5887 110.927L72.5981 106.058ZM84.7933 106.049C85.7534 106.082 86.7135 106.038 87.6721 106.071L87.7382 106.144C87.7744 107.753 87.6894 109.367 87.776 110.973C89.1438 110.948 90.5116 110.969 91.8778 110.961L91.8872 113.626C90.5116 113.678 89.1312 113.647 87.7555 113.639L87.7398 123.568C87.7382 124.433 87.9869 125.456 88.8195 125.881C89.841 126.441 91.0798 126.153 92.0289 125.581L92.0257 128.436C91.0137 128.894 89.8725 128.983 88.7802 128.856C87.362 128.667 85.9738 127.862 85.308 126.558C84.9869 125.875 84.8075 125.119 84.7775 124.365V113.65C83.7812 113.648 82.7865 113.653 81.7917 113.65L81.798 110.951C82.7786 110.978 83.7592 110.943 84.7398 110.976C84.8437 109.339 84.7319 107.69 84.7933 106.049ZM98.8048 111.052C100.797 110.222 103.097 110.207 105.132 110.902C107.463 111.71 109.267 113.752 109.928 116.122C110.361 117.436 110.344 118.832 110.282 120.198L96.5808 120.212C96.6941 121.677 97.1301 123.171 98.1438 124.272C99.584 125.958 102.063 126.584 104.156 125.922C105.625 125.487 106.771 124.352 107.525 123.048C108.359 123.423 109.169 123.85 110.001 124.234C108.864 126.409 106.797 128.137 104.369 128.605C102.375 128.98 100.193 128.989 98.3641 127.999C95.9906 126.815 94.3568 124.404 93.8909 121.812C93.5525 119.82 93.6579 117.713 94.404 115.822C95.1863 113.746 96.7681 111.949 98.8048 111.052ZM99.8893 113.552C98.213 114.329 97.1333 116.057 96.7964 117.841L107.304 117.807C107.137 116.642 106.725 115.458 105.875 114.616C104.386 113.013 101.841 112.7 99.8893 113.552ZM116.52 113.781C117.617 111.104 120.987 109.699 123.652 110.82V113.944C122.533 113.501 121.278 113.228 120.096 113.577C118.481 114.059 117.286 115.506 116.828 117.098C116.514 118.173 116.632 119.295 116.644 120.397C116.522 121.823 116.706 123.25 116.613 124.676C116.688 125.908 116.547 127.139 116.651 128.372C115.672 128.42 114.693 128.369 113.715 128.403C113.658 124.686 113.707 120.968 113.692 117.249L113.714 110.991C114.631 111.016 115.55 110.988 116.47 111.01C116.553 111.933 116.367 112.861 116.52 113.781ZM51.4407 110.956C52.4166 110.997 53.4003 110.897 54.3715 111.008L54.3573 121.369C54.3479 122.635 54.5273 124.019 55.3993 125.002C56.5247 126.254 58.4307 126.483 59.9701 125.988C62.0273 125.249 63.4628 123.061 63.3793 120.873L63.4108 110.956L66.3494 110.962L66.3321 128.36C65.4003 128.344 64.4701 128.36 63.5399 128.349L63.5289 125.873C62.926 126.633 62.2933 127.403 61.4292 127.882C59.66 129.003 57.4155 129.152 55.4339 128.578C54.1558 128.191 53.043 127.291 52.4024 126.115C51.6422 124.822 51.4502 123.293 51.4061 121.82L51.4407 110.956Z" fill="black"/>
<path d="M79.2676 18.0266L103 18L63.1835 58.5281L52.8066 69.0367L41 56.9982L79.2676 18.0266ZM79.0468 54.2134C79.3548 53.7991 79.9214 54.0033 80.3515 53.95L102.98 53.956L82.3566 74.9377L70.4889 62.9257L79.0468 54.2134Z" fill="#44D1FD"/>
<path d="M58.6591 74.9584L70.4889 62.9257L82.3566 74.9377L82.406 74.9909L70.4918 87.0118L58.6591 74.9584Z" fill="#1FBCFD"/>
<path d="M70.4918 87.0118L82.406 74.9909L102.988 95.9726C95.2355 95.9904 87.4855 95.9667 79.7355 95.9845C79.2938 96.0851 79.0206 95.6737 78.7388 95.4192L70.4918 87.0118Z" fill="#08589C"/>
</g>
<defs>
<clipPath id="clip0_2089_5402">
<rect width="144" height="144" fill="white"/>
</clipPath>
</defs>
</svg>
