<svg width="144" height="144" viewBox="0 0 144 144" fill="none" xmlns="http://www.w3.org/2000/svg">
<g clip-path="url(#clip0_2089_5433)">
<path d="M120 0H24C10.7452 0 0 10.7452 0 24V120C0 133.255 10.7452 144 24 144H120C133.255 144 144 133.255 144 120V24C144 10.7452 133.255 0 120 0Z" fill="#283239"/>
<path d="M67.8929 105.912C65.474 105.912 63.8339 106.924 62.6039 108.786H62.522V106.398H58.2582V123.966H62.6039V114.008C62.6039 111.62 64.121 109.96 66.212 109.96C68.18 109.96 69.656 111.134 69.656 113.199V124.006H74.0022V112.51C74.0429 108.665 71.5829 105.912 67.8929 105.912ZM51.6569 116.558C51.6569 118.906 50.3039 120.525 48.0899 120.525C46.0812 120.525 44.81 119.392 44.81 117.327V106.398H40.4639V118.137C40.4639 121.982 42.6779 124.492 46.655 124.492C49.1562 124.492 50.5499 123.561 51.7392 121.942H51.8622V124.006H56.0442V106.398H51.698V116.558H51.6569ZM76.3392 106.398H80.6849V123.966H76.3392V106.398ZM76.3392 100.934H80.6849V104.455H76.3392V100.934ZM105.326 106.398L102.743 114.332C102.169 115.951 101.718 118.177 101.718 118.177H101.595C101.595 118.177 101.021 115.951 100.447 114.332L97.5359 106.398H92.8619L97.6589 118.906C98.684 121.578 99.0119 122.711 99.0119 123.682C99.0119 125.139 98.2332 126.071 96.3882 126.071H94.7069V129.754H97.4952C101.103 129.754 102.374 128.337 103.727 124.451L110 106.438H105.326V106.398ZM88.8029 118.825V109.515H91.5912V106.438H88.8029V100.934H84.4572V106.398H81.9972V109.474H84.4572V119.796C84.4572 123.116 86.999 124.006 89.2949 124.006C91.181 124.006 91.673 123.925 91.673 123.925V120.525H90.566C89.5409 120.565 88.8029 120.12 88.8029 118.825Z" fill="white"/>
<path fill-rule="evenodd" clip-rule="evenodd" d="M100.344 17L68.1176 25.2523L63.3165 33.3606L53.6421 33.2886L30 55.964L53.6421 78.6394L63.3165 78.5674L68.1176 86.6757L100.344 95L109 64.0723L104.126 56.036L109 47.999L100.344 17ZM81.5028 55.964L95.6878 79.5005L102.526 55.964L95.6878 32.4275L81.5028 55.964ZM64.1172 34.6522L88.7774 28.5526L74.5923 52.0891H46.2222L64.1172 34.6522ZM46.2944 59.7668L64.1172 77.2038L88.8496 83.3034L74.6646 59.7668H46.2944Z" fill="#76889B"/>
</g>
<defs>
<clipPath id="clip0_2089_5433">
<rect width="144" height="144" fill="white"/>
</clipPath>
</defs>
</svg>
