<svg width="144" height="144" viewBox="0 0 144 144" fill="none" xmlns="http://www.w3.org/2000/svg">
<g clip-path="url(#clip0_2089_5418)">
<path d="M120 0H24C10.7452 0 0 10.7452 0 24V120C0 133.255 10.7452 144 24 144H120C133.255 144 144 133.255 144 120V24C144 10.7452 133.255 0 120 0Z" fill="white"/>
<path d="M71.9507 12.5996L16.8354 32.254L25.2418 105.129L71.9507 131L118.659 105.129L127.066 32.254L71.9507 12.5996Z" fill="#DD0031"/>
<path d="M71.9507 12.5996L71.9504 25.742V25.6828L71.9507 131L118.659 105.129L127.066 32.254L71.9507 12.5996Z" fill="#C3002F"/>
<path d="M71.9504 25.6828L37.4959 102.939H50.3423L57.2687 85.6525H86.5135L93.4399 102.939H106.286L71.9504 25.6828ZM82.0143 74.9965H61.8863L71.9503 50.7837L82.0143 74.9965Z" fill="white"/>
</g>
<defs>
<clipPath id="clip0_2089_5418">
<rect width="144" height="144" fill="white"/>
</clipPath>
</defs>
</svg>
