<svg width="144" height="144" viewBox="0 0 144 144" fill="none" xmlns="http://www.w3.org/2000/svg">
<g clip-path="url(#clip0_2089_5378)">
<path d="M120 0H24C10.7452 0 0 10.7452 0 24V120C0 133.255 10.7452 144 24 144H120C133.255 144 144 133.255 144 120V24C144 10.7452 133.255 0 120 0Z" fill="white"/>
<path d="M29 115L72.1433 71.8567L115 115H29Z" fill="url(#paint0_linear_2089_5378)"/>
<path d="M29 29H72.1433L29 75.5833V29Z" fill="url(#paint1_linear_2089_5378)"/>
<path d="M72.1433 29L29 74.4367V115L72.1433 71.8567L115 29H72.1433Z" fill="url(#paint2_linear_2089_5378)"/>
</g>
<defs>
<linearGradient id="paint0_linear_2089_5378" x1="51.8751" y1="155.041" x2="116.799" y2="122.471" gradientUnits="userSpaceOnUse">
<stop offset="0.09677" stop-color="#0095D5"/>
<stop offset="0.3007" stop-color="#238AD9"/>
<stop offset="0.6211" stop-color="#557BDE"/>
<stop offset="0.8643" stop-color="#7472E2"/>
<stop offset="1" stop-color="#806EE3"/>
</linearGradient>
<linearGradient id="paint1_linear_2089_5378" x1="41.0263" y1="60.9102" x2="84.4652" y2="14.008" gradientUnits="userSpaceOnUse">
<stop offset="0.1183" stop-color="#0095D5"/>
<stop offset="0.4178" stop-color="#3C83DC"/>
<stop offset="0.6962" stop-color="#6D74E1"/>
<stop offset="0.8333" stop-color="#806EE3"/>
</linearGradient>
<linearGradient id="paint2_linear_2089_5378" x1="14.5209" y1="108.068" x2="94.5485" y2="28.0405" gradientUnits="userSpaceOnUse">
<stop offset="0.1075" stop-color="#C757BC"/>
<stop offset="0.2138" stop-color="#D0609A"/>
<stop offset="0.4254" stop-color="#E1725C"/>
<stop offset="0.6048" stop-color="#EE7E2F"/>
<stop offset="0.743" stop-color="#F58613"/>
<stop offset="0.8232" stop-color="#F88909"/>
</linearGradient>
<clipPath id="clip0_2089_5378">
<rect width="144" height="144" fill="white"/>
</clipPath>
</defs>
</svg>
