<svg width="144" height="144" viewBox="0 0 144 144" fill="none" xmlns="http://www.w3.org/2000/svg">
<g clip-path="url(#clip0_2089_5251)">
<path d="M120 0H24C10.7452 0 0 10.7452 0 24V120C0 133.255 10.7452 144 24 144H120C133.255 144 144 133.255 144 120V24C144 10.7452 133.255 0 120 0Z" fill="white"/>
<path d="M72.0513 22.0008C67.8739 22.0201 63.8846 22.3729 60.3744 22.988C50.0338 24.7973 48.1563 28.5842 48.1563 35.5678V44.7911H72.5924V47.8655H48.1563H38.9857C31.8839 47.8655 25.6653 52.093 23.7202 60.135C21.4766 69.3531 21.3771 75.1053 23.7202 84.7305C25.4572 91.8951 29.6054 97 36.7072 97H45.1089V85.9433C45.1089 77.9555 52.0874 70.9097 60.3744 70.9097H84.782C91.5762 70.9097 97 65.3694 97 58.6119V35.5678C97 29.0093 91.4133 24.0826 84.782 22.988C80.5842 22.296 76.2287 21.9816 72.0513 22.0008ZM58.8364 29.419C61.3605 29.419 63.4218 31.4937 63.4218 34.0447C63.4217 36.5867 61.3605 38.6422 58.8364 38.6422C56.3033 38.6422 54.2511 36.5867 54.2511 34.0447C54.2511 31.4937 56.3033 29.419 58.8364 29.419Z" fill="url(#paint0_linear_2089_5251)"/>
<path d="M99.7856 48V58.6646C99.7856 66.9328 92.6679 73.8918 84.5512 73.8918H60.1932C53.5211 73.8918 48 79.5155 48 86.0959V108.965C48 115.473 53.7469 119.302 60.1932 121.169C67.9126 123.404 75.3151 123.808 84.5512 121.169C90.6906 119.418 96.7444 115.895 96.7444 108.965V99.8116H72.3864V96.7606H96.7444H108.938C116.025 96.7606 118.666 91.892 121.131 84.5844C123.677 77.0614 123.569 69.8268 121.131 60.1761C119.379 53.2277 116.034 48 108.938 48H99.7856ZM86.086 105.914C88.614 105.914 90.662 107.954 90.662 110.476C90.662 113.008 88.614 115.067 86.086 115.067C83.5671 115.067 81.51 113.008 81.51 110.476C81.51 107.954 83.5671 105.914 86.086 105.914Z" fill="url(#paint1_linear_2089_5251)"/>
</g>
<defs>
<linearGradient id="paint0_linear_2089_5251" x1="22" y1="22" x2="77.8871" y2="70.087" gradientUnits="userSpaceOnUse">
<stop stop-color="#5A9FD4"/>
<stop offset="1" stop-color="#306998"/>
</linearGradient>
<linearGradient id="paint1_linear_2089_5251" x1="85.5" y1="109.707" x2="65.7326" y2="81.5799" gradientUnits="userSpaceOnUse">
<stop stop-color="#FFD43B"/>
<stop offset="1" stop-color="#FFE873"/>
</linearGradient>
<clipPath id="clip0_2089_5251">
<rect width="144" height="144" fill="white"/>
</clipPath>
</defs>
</svg>
