<svg width="146" height="146" viewBox="0 0 146 146" fill="none" xmlns="http://www.w3.org/2000/svg">
<path d="M121 1H25C11.7452 1 1 11.7452 1 25V121C1 134.255 11.7452 145 25 145H121C134.255 145 145 134.255 145 121V25C145 11.7452 134.255 1 121 1Z" fill="#4A4877"/>
<path d="M72.5032 27.0126C44.7475 31.8858 20 57.3851 20 85.1258C33.5808 61.2383 42.6494 59.5195 45.1583 59.5195C47.6672 59.5195 48.988 60.8165 48.988 63.6938V99.2921C48.988 103.718 40.3554 102.994 37.4989 102.56C48.0527 118.206 72.5032 120 72.5032 120L84.1691 108.377L95.8351 114.189C114.25 105.79 125 87.8079 125 85.1321C120.57 90.5971 114.598 94.6707 107.741 96.6918L107.495 96.7547C105.946 96.7547 101.662 95.9614 101.662 93.8459V51.706C101.662 48.0479 110.143 36.8849 113.328 32.8176C92.2708 38.3141 86.1661 47.8905 86.1661 47.8905C86.1661 47.8905 84.5673 44.4403 78.3298 44.4403C81.4959 47.4183 83.6256 51.4541 84.1565 55.9747L84.1628 56.0629V91.6612C80.845 94.0096 76.9332 95.7725 72.7054 96.7044L72.4905 96.7421C68.446 96.7421 66.4743 95.1051 66.4743 92.02C66.4743 88.9349 66.6575 50.2516 66.6575 50.2516C66.6575 50.2516 60.8246 52.386 60.8246 40.4422C60.8246 34.4672 72.4905 27 72.4905 27L72.5032 27.0126Z" fill="black"/>
<path d="M111.281 132.398C109.16 132.398 107.276 132.014 105.628 131.247C103.98 130.48 102.678 129.424 101.722 128.08C100.775 126.735 100.282 125.191 100.244 123.449H107.063C107.119 124.519 107.555 125.381 108.369 126.034C109.184 126.678 110.154 127 111.281 127C112.162 127 112.943 126.806 113.625 126.418C114.307 126.029 114.842 125.485 115.23 124.784C115.618 124.074 115.808 123.259 115.798 122.341C115.808 121.403 115.614 120.584 115.216 119.884C114.828 119.183 114.288 118.638 113.597 118.25C112.915 117.852 112.129 117.653 111.239 117.653C110.396 117.644 109.596 117.829 108.838 118.207C108.09 118.586 107.522 119.102 107.134 119.756L100.926 118.591L102.19 102.909H120.855V108.577H107.972L107.304 115.437H107.474C107.957 114.633 108.734 113.97 109.804 113.449C110.884 112.919 112.11 112.653 113.483 112.653C115.225 112.653 116.778 113.061 118.142 113.875C119.515 114.68 120.595 115.797 121.381 117.227C122.176 118.657 122.574 120.295 122.574 122.142C122.574 124.14 122.1 125.911 121.153 127.455C120.216 128.998 118.9 130.21 117.205 131.091C115.519 131.962 113.545 132.398 111.281 132.398Z" fill="white" fill-opacity="0.6"/>
</svg>
