<svg width="144" height="144" viewBox="0 0 144 144" fill="none" xmlns="http://www.w3.org/2000/svg">
<g clip-path="url(#clip0_2089_5312)">
<path d="M120 0H24C10.7452 0 0 10.7452 0 24V120C0 133.255 10.7452 144 24 144H120C133.255 144 144 133.255 144 120V24C144 10.7452 133.255 0 120 0Z" fill="white"/>
<path d="M71.2884 109C70.8791 109 70.4727 108.894 70.1139 108.69L66.3754 106.504C65.817 106.196 66.0895 106.087 66.2737 106.024C67.0182 105.767 67.1692 105.709 67.9639 105.263C68.0474 105.216 68.1568 105.232 68.2423 105.282L71.1143 106.965C71.218 107.021 71.3652 107.021 71.4613 106.965L82.6596 100.582C82.7633 100.524 82.8306 100.405 82.8306 100.283V87.5211C82.8306 87.3938 82.7633 87.2803 82.6574 87.2166L71.4636 80.8386C71.3598 80.7777 71.2225 80.7777 71.1188 80.8386L59.9272 87.2166C59.8187 87.2775 59.7498 87.3966 59.7498 87.5184V100.28C59.7498 100.402 59.8171 100.518 59.9236 100.576L62.9901 102.326C64.6552 103.148 65.6727 102.179 65.6727 101.205V88.609C65.6727 88.4291 65.8156 88.2907 65.9978 88.2907H67.4162C67.5928 88.2907 67.7385 88.4291 67.7385 88.609V101.21C67.7385 103.403 66.5276 104.662 64.4225 104.662C63.775 104.662 63.2648 104.662 61.8409 103.97L58.9032 102.298C58.1773 101.883 57.7288 101.108 57.7288 100.28V87.5184C57.7288 86.6879 58.1773 85.9128 58.9032 85.5031L70.1128 79.1167C70.8219 78.7209 71.7638 78.7209 72.4673 79.1167L83.6628 85.5058C84.386 85.9183 84.8373 86.6907 84.8373 87.5211V100.283C84.8373 101.11 84.386 101.883 83.6628 102.298L72.4673 108.684C72.1085 108.889 71.7021 108.994 71.2872 108.994" fill="#689F63"/>
<path d="M74.7474 100.207C69.8476 100.207 68.8203 97.9854 68.8203 96.1224C68.8203 95.9452 68.9649 95.804 69.1446 95.804H70.591C70.7507 95.804 70.8853 95.9189 70.9105 96.0747C71.1291 97.5303 71.7795 98.2644 74.7423 98.2644C77.1025 98.2644 78.106 97.7379 78.106 96.5019C78.106 95.7905 77.8201 95.2617 74.1537 94.9074C71.0871 94.6084 69.1922 93.9413 69.1922 91.519C69.1922 89.2878 71.0983 87.9591 74.291 87.9591C77.8762 87.9591 79.6533 89.1882 79.8775 91.8291C79.886 91.9204 79.8523 92.009 79.7907 92.0755C79.729 92.1391 79.6421 92.1779 79.5524 92.1779H78.0976C77.9462 92.1779 77.8145 92.0727 77.7837 91.9287C77.4333 90.3979 76.5867 89.9079 74.2854 89.9079C71.7094 89.9079 71.4095 90.7938 71.4095 91.4581C71.4095 92.2637 71.7626 92.499 75.2385 92.953C78.6806 93.4042 80.3148 94.0409 80.3148 96.4299C80.3148 98.8383 78.2798 100.22 74.7311 100.22M88.3709 86.6857H88.7465C89.0548 86.6857 89.1137 86.4725 89.1137 86.3479C89.1137 86.0213 88.8866 86.0213 88.7605 86.0213H88.3737L88.3709 86.6857ZM87.914 85.6393H88.7465C89.0324 85.6393 89.593 85.6393 89.593 86.2704C89.593 86.7106 89.3071 86.8019 89.1361 86.8573C89.4697 86.8794 89.4921 87.0954 89.5369 87.3999C89.5594 87.5909 89.5958 87.9203 89.6631 88.031H89.1501C89.1361 87.9203 89.0576 87.3113 89.0576 87.2781C89.024 87.1424 88.9763 87.076 88.8054 87.076H88.3821V88.0338H87.914V85.6393ZM86.9133 86.8296C86.9133 87.8207 87.7234 88.6234 88.7185 88.6234C89.722 88.6234 90.5321 87.804 90.5321 86.8296C90.5321 85.8358 89.7107 85.0469 88.7157 85.0469C87.7346 85.0469 86.9105 85.8247 86.9105 86.8268M90.8796 86.8351C90.8796 88.0089 89.907 88.9667 88.7213 88.9667C87.544 88.9667 86.5629 88.02 86.5629 86.8351C86.5629 85.6282 87.5664 84.7036 88.7213 84.7036C89.8845 84.7036 90.8768 85.631 90.8768 86.8351" fill="#689F63"/>
<path fill-rule="evenodd" clip-rule="evenodd" d="M36.6113 59.0665C36.6113 58.5571 36.3394 58.0893 35.8943 57.836L24.0215 51.0897C23.8211 50.9735 23.5966 50.9126 23.369 50.9043H23.2462C23.0186 50.9126 22.7941 50.9735 22.5903 51.0897L10.7181 57.836C10.2758 58.0907 10 58.5585 10 59.0679L10.0261 77.2387C10.0261 77.4906 10.1578 77.7259 10.3821 77.8504C10.6007 77.9833 10.8754 77.9833 11.094 77.8504L18.1522 73.8586C18.5979 73.5968 18.8698 73.1339 18.8698 72.6295V64.1407C18.8698 63.6341 19.1417 63.1663 19.586 62.9143L22.5909 61.2052C22.814 61.0779 23.059 61.0148 23.3084 61.0148C23.554 61.0148 23.8046 61.0773 24.0215 61.2049L27.025 62.9135C27.4696 63.1654 27.7426 63.6333 27.7426 64.1398V72.6281C27.7426 73.132 28.0182 73.597 28.4616 73.8572L35.5153 77.8463C35.7367 77.9764 36.0123 77.9764 36.2329 77.8463C36.4504 77.7217 36.5883 77.4864 36.5883 77.2345L36.6113 59.0665ZM92.6358 68.5272C92.6358 68.6538 92.5677 68.7709 92.4564 68.8334L88.3785 71.1549C88.2678 71.2177 88.131 71.2177 88.0205 71.1549L83.9421 68.8334C83.83 68.7706 83.7627 68.6535 83.7627 68.5272V63.8777C83.7627 63.7509 83.83 63.6341 83.9393 63.5704L88.0149 61.2451C88.1271 61.1814 88.2644 61.1814 88.3765 61.2451L92.455 63.5704C92.5671 63.6341 92.6344 63.7509 92.6344 63.8777L92.6358 68.5272ZM93.7374 34.0896C93.5149 33.9673 93.2441 33.9706 93.0243 34.0971C92.8057 34.2244 92.6706 34.457 92.6706 34.7089V52.7025C92.6706 52.8797 92.5753 53.043 92.42 53.1316C92.2658 53.2202 92.0738 53.2202 91.9182 53.1316L88.9442 51.4399C88.5013 51.1869 87.9558 51.1869 87.5112 51.4399L75.6346 58.2091C75.1909 58.4611 74.917 58.9289 74.917 59.4327V72.975C74.917 73.4816 75.1909 73.9467 75.6346 74.2013L87.5112 80.9753C87.9547 81.2272 88.5007 81.2272 88.9456 80.9753L100.822 74.1986C101.265 73.9439 101.54 73.4788 101.54 72.9722V39.2217C101.54 38.7079 101.257 38.2354 100.803 37.9843L93.7374 34.0896ZM133.287 63.7553C133.728 63.5023 134 63.035 134 62.5312V59.2492C134 58.7442 133.728 58.2783 133.286 58.0242L121.485 51.2586C121.039 51.0039 120.493 51.0039 120.047 51.2586L108.173 58.027C107.727 58.2817 107.455 58.7467 107.455 59.2533V72.7901C107.455 73.2994 107.733 73.77 108.179 74.022L119.977 80.663C120.411 80.9094 120.944 80.9121 121.384 80.6713L128.521 76.7542C128.745 76.6297 128.888 76.3944 128.888 76.1397C128.888 75.885 128.75 75.6469 128.526 75.5223L116.579 68.7512C116.355 68.6266 116.218 68.3913 116.218 68.1394V63.8929C116.218 63.6393 116.352 63.4057 116.577 63.2795L120.293 61.1618C120.515 61.0344 120.787 61.0344 121.008 61.1618L124.728 63.2795C124.949 63.404 125.087 63.6393 125.087 63.8913V67.2298C125.087 67.4817 125.224 67.717 125.446 67.8443C125.667 67.9689 125.942 67.9689 126.163 67.8416L133.287 63.7553Z" fill="#333333"/>
<path fill-rule="evenodd" clip-rule="evenodd" d="M120.592 63.122C120.676 63.073 120.781 63.073 120.867 63.122L123.146 64.4203C123.231 64.4691 123.283 64.5587 123.283 64.6556V67.255C123.283 67.3519 123.231 67.4416 123.146 67.4903L120.867 68.7886C120.781 68.8376 120.676 68.8376 120.592 68.7886L118.314 67.4903C118.228 67.4416 118.174 67.3519 118.174 67.255V64.6556C118.174 64.5587 118.225 64.4691 118.312 64.4203L120.592 63.122Z" fill="#689F63"/>
<mask id="mask0_2089_5312" style="mask-type:luminance" maskUnits="userSpaceOnUse" x="42" y="51" width="27" height="30">
<path d="M55.0523 51.3259L43.243 58.0575C42.8006 58.3094 42.5293 58.7745 42.5293 59.2772V72.7497C42.5293 73.2527 42.8006 73.7175 43.243 73.9694L55.0532 80.7062C55.4946 80.9573 56.039 80.9573 56.4799 80.7062L68.2882 73.9694C68.7282 73.7175 69.0001 73.2524 69.0001 72.7497V59.2772C69.0001 58.7745 68.7283 58.3094 68.2854 58.0575L56.4788 51.3259C56.2574 51.2005 56.0107 51.1377 55.764 51.1377C55.5174 51.1377 55.2707 51.2005 55.0492 51.3259" fill="white"/>
</mask>
<g mask="url(#mask0_2089_5312)">
<path d="M80.9338 56.9141L47.6571 40.8057L30.5947 75.1802L63.8706 91.2895L80.9338 56.9141Z" fill="url(#paint0_linear_2089_5312)"/>
</g>
<mask id="mask1_2089_5312" style="mask-type:luminance" maskUnits="userSpaceOnUse" x="42" y="51" width="27" height="30">
<path d="M42.8218 73.6053C42.9347 73.7501 43.076 73.8755 43.2422 73.9696L53.3726 79.7483L55.06 80.7061C55.3123 80.8501 55.5999 80.911 55.8824 80.8902C55.9766 80.8827 56.0708 80.8653 56.1627 80.8396L68.6179 58.3171C68.5226 58.2146 68.4111 58.1288 68.2861 58.0568L60.5535 53.647L56.466 51.3245C56.35 51.258 56.2241 51.211 56.096 51.1777L42.8218 73.6053Z" fill="white"/>
</mask>
<g mask="url(#mask1_2089_5312)">
<path d="M28.4341 61.6787L51.9309 93.0853L83.0058 70.4117L59.5076 39.0059L28.4341 61.6787Z" fill="url(#paint1_linear_2089_5312)"/>
</g>
<mask id="mask2_2089_5312" style="mask-type:luminance" maskUnits="userSpaceOnUse" x="43" y="51" width="26" height="30">
<path d="M55.623 51.1459C55.4248 51.1653 55.2311 51.2262 55.0526 51.3264L43.2769 58.0386L55.9748 80.8794C56.1514 80.8545 56.3252 80.7964 56.4821 80.7067L68.2915 73.9699C68.6559 73.7611 68.9054 73.4079 68.9811 73.0076L56.0365 51.1689C55.9412 51.1503 55.8459 51.1406 55.7477 51.1406C55.7085 51.1406 55.6693 51.1426 55.63 51.1462" fill="white"/>
</mask>
<g mask="url(#mask2_2089_5312)">
<path d="M43.2764 51.1406V80.88H68.9758V51.1406H43.2764Z" fill="url(#paint2_linear_2089_5312)"/>
</g>
</g>
<defs>
<linearGradient id="paint0_linear_2089_5312" x1="64.2854" y1="48.8346" x2="47.5656" y2="83.372" gradientUnits="userSpaceOnUse">
<stop offset="0.3" stop-color="#3E863D"/>
<stop offset="0.5" stop-color="#55934F"/>
<stop offset="0.8" stop-color="#5AAD45"/>
</linearGradient>
<linearGradient id="paint1_linear_2089_5312" x1="40.3233" y1="77.562" x2="71.124" y2="54.5177" gradientUnits="userSpaceOnUse">
<stop offset="0.57" stop-color="#3E863D"/>
<stop offset="0.72" stop-color="#619857"/>
<stop offset="1" stop-color="#76AC64"/>
</linearGradient>
<linearGradient id="paint2_linear_2089_5312" x1="43.285" y1="66.0111" x2="68.9807" y2="66.0111" gradientUnits="userSpaceOnUse">
<stop offset="0.16" stop-color="#6BBF47"/>
<stop offset="0.38" stop-color="#79B461"/>
<stop offset="0.47" stop-color="#75AC64"/>
<stop offset="0.7" stop-color="#659E5A"/>
<stop offset="0.9" stop-color="#3E863D"/>
</linearGradient>
<clipPath id="clip0_2089_5312">
<rect width="144" height="144" fill="white"/>
</clipPath>
</defs>
</svg>
