<svg width="144" height="144" viewBox="0 0 144 144" fill="none" xmlns="http://www.w3.org/2000/svg">
<g clip-path="url(#clip0_2089_5234)">
<path d="M120 0H24C10.7452 0 0 10.7452 0 24V120C0 133.255 10.7452 144 24 144H120C133.255 144 144 133.255 144 120V24C144 10.7452 133.255 0 120 0Z" fill="#F05138"/>
<path d="M108.746 73.8744C108.744 73.8709 108.741 73.8683 108.738 73.865C108.866 73.4303 108.997 72.9983 109.109 72.5527C113.892 53.4593 102.219 30.8856 82.4649 19C91.1214 30.7581 94.9489 44.9999 91.5482 57.4545C91.245 58.5654 90.8804 59.6316 90.4773 60.6679C90.04 60.3799 89.4889 60.0531 88.7489 59.6443C88.7489 59.6443 69.0992 47.488 47.8021 25.9865C47.2433 25.4222 59.1586 43.0505 72.6811 57.3651C66.3101 53.7826 48.5552 40.839 37.3152 30.5312C38.6961 32.8387 40.3386 35.0607 42.1441 37.1999C51.5305 49.1271 63.7716 63.8435 78.4369 75.1439C68.1329 81.462 53.5731 81.9533 39.0766 75.1505C35.491 73.4669 32.1203 71.4354 29 69.1273C35.1363 78.9618 44.5872 87.4469 56.0898 92.4005C69.807 98.307 83.4479 97.9065 93.6075 92.4973L93.5996 92.509C93.6459 92.4796 93.7049 92.4475 93.753 92.4178C94.1702 92.193 94.5843 91.9642 94.9892 91.7225C99.8706 89.1838 109.512 86.6082 114.687 96.6973C115.955 99.1663 118.648 86.0814 108.746 73.8744Z" fill="white"/>
<path d="M47.7276 124.722C47.963 126.803 49.9569 128.168 52.7258 128.168C55.3567 128.168 57.2535 126.803 57.2535 124.915C57.2535 123.289 56.1044 122.296 53.4596 121.634L50.8983 120.987C47.2153 120.077 45.5537 118.422 45.5537 115.693C45.5537 112.33 48.5029 110 52.6983 110C56.7687 110 59.6625 112.343 59.7595 115.721H57.0598C56.8518 113.653 55.1627 112.385 52.6291 112.385C50.1228 112.385 48.3783 113.667 48.3783 115.541C48.3783 117.002 49.4585 117.871 52.1168 118.547L54.249 119.098C58.375 120.104 60.0641 121.703 60.0641 124.584C60.0641 128.251 57.1425 130.553 52.4904 130.553C48.1706 130.553 45.2215 128.265 45 124.722L47.7276 124.722Z" fill="black"/>
<path d="M77.2145 130.222H74.5005L71.3299 119.222H71.2746L68.1178 130.222H65.4042L61.3888 115.817H64.0194L66.8161 127.382H66.8717L70.0285 115.817H72.576L75.7605 127.382H75.8161L78.6129 115.817H81.2157L77.2145 130.222Z" fill="black"/>
<path d="M82.9681 111.943C82.9681 111.075 83.6883 110.372 84.5606 110.372C85.4467 110.372 86.1666 111.075 86.1666 111.943C86.1666 112.812 85.4467 113.529 84.5606 113.529C83.6883 113.529 82.9681 112.812 82.9681 111.943ZM83.2452 115.817H85.8897V130.222H83.2452V115.817Z" fill="black"/>
<path d="M103.159 117.94V115.817H100.362V112.371H97.7316V115.817H92.6766V114.549C92.6902 113.267 93.1888 112.729 94.3796 112.729C94.767 112.729 95.1548 112.771 95.4734 112.826V110.758C95.0025 110.689 94.5733 110.648 94.075 110.648C91.2504 110.648 90.0596 111.82 90.0596 114.508V115.817H88.0384V117.94H90.0596V130.222H92.6902V117.94H97.7316V126.445C97.7316 129.23 98.7979 130.305 101.567 130.305C102.162 130.305 102.841 130.263 103.145 130.194V128.044C102.965 128.072 102.439 128.113 102.148 128.113C100.916 128.113 100.363 127.534 100.363 126.239V117.94H103.159Z" fill="black"/>
</g>
<defs>
<clipPath id="clip0_2089_5234">
<rect width="144" height="144" fill="white"/>
</clipPath>
</defs>
</svg>
