<svg width="144" height="144" viewBox="0 0 144 144" fill="none" xmlns="http://www.w3.org/2000/svg">
<g clip-path="url(#clip0_2089_5441)">
<path d="M120 0H24C10.7452 0 0 10.7452 0 24V120C0 133.255 10.7452 144 24 144H120C133.255 144 144 133.255 144 120V24C144 10.7452 133.255 0 120 0Z" fill="white"/>
<path d="M84.4707 27.0005L72 48.7085L59.5293 27.0005H18L72 121L126 27.0005H84.4707Z" fill="#41B883"/>
<path d="M84.4707 27.0005L72 48.7085L59.5293 27.0005L39.5997 27L71.9997 83.3986L104.4 27L84.4707 27.0005Z" fill="#34495E"/>
</g>
<defs>
<clipPath id="clip0_2089_5441">
<rect width="144" height="144" fill="white"/>
</clipPath>
</defs>
</svg>
