<svg width="144" height="144" viewBox="0 0 144 144" fill="none" xmlns="http://www.w3.org/2000/svg">
<g clip-path="url(#clip0_2089_5282)">
<path d="M120 0H24C10.7452 0 0 10.7452 0 24V120C0 133.255 10.7452 144 24 144H120C133.255 144 144 133.255 144 120V24C144 10.7452 133.255 0 120 0Z" fill="#777BB3"/>
<path d="M41.9476 78.4378C44.7336 78.4378 46.8135 77.9169 48.1295 76.8902C49.4314 75.874 50.3306 74.1133 50.8019 71.6574C51.2413 69.3619 51.0739 67.759 50.3045 66.894C49.5178 66.0105 47.8168 65.5625 45.249 65.5625H40.7967L38.3285 78.4378H41.9476ZM27.3853 94.2978C27.1786 94.2978 26.9824 94.2042 26.851 94.0422C26.7193 93.8804 26.666 93.6674 26.7055 93.4616L33.2469 59.3418C33.3102 59.012 33.5954 58.7737 33.9269 58.7737H48.0253C52.4562 58.7737 55.7541 59.9933 57.8271 62.3991C59.9111 64.8176 60.5547 68.1982 59.7397 72.4468C59.4082 74.1777 58.8378 75.7852 58.0446 77.2245C57.2505 78.6653 56.2009 79.9985 54.9247 81.1877C53.3969 82.6372 51.6678 83.6883 49.79 84.3068C47.942 84.9171 45.5686 85.2266 42.736 85.2266H37.0272L35.397 93.7294C35.3337 94.0595 35.0487 94.2978 34.7171 94.2978H27.3853Z" fill="black"/>
<path d="M41.3678 66.2646H45.2491C48.3482 66.2646 49.4247 66.954 49.7905 67.3649C50.3974 68.047 50.5119 69.4853 50.1219 71.5241C49.6836 73.8065 48.8712 75.4248 47.707 76.3336C46.515 77.2639 44.5771 77.7354 41.9477 77.7354H39.1688L41.3678 66.2646ZM48.0254 58.0712H33.9268C33.2636 58.0712 32.6934 58.5479 32.5669 59.2078L26.0255 93.3276C25.9465 93.7394 26.0532 94.1652 26.3162 94.489C26.5795 94.8127 26.9716 95 27.3854 95H34.717C35.3804 95 35.9505 94.5234 36.0771 93.8635L37.5983 85.9288H42.736C45.6414 85.9288 48.0873 85.6076 50.005 84.9743C51.9773 84.3247 53.7918 83.2233 55.3979 81.7007C56.7261 80.4619 57.8202 79.0714 58.6492 77.5673C59.4784 76.0627 60.0742 74.385 60.4198 72.5806C61.2777 68.1084 60.5808 64.5272 58.3488 61.9371C56.1384 59.3719 52.665 58.0712 48.0254 58.0712ZM37.488 79.1399H41.9477C44.9036 79.1399 47.1054 78.5755 48.5521 77.4465C49.999 76.3172 50.9749 74.4325 51.482 71.7914C51.9671 69.2557 51.7462 67.4662 50.819 66.4238C49.8907 65.3814 48.0344 64.8601 45.2491 64.8601H40.2257L37.488 79.1399ZM48.0254 59.4758C52.2666 59.4758 55.3607 60.6042 57.3055 62.8611C59.25 65.118 59.8356 68.2683 59.0597 72.3128C58.7404 73.9788 58.2003 75.5021 57.4399 76.8821C56.6785 78.263 55.6844 79.5257 54.456 80.6707C52.9919 82.0596 51.3656 83.0494 49.576 83.6388C47.7864 84.2299 45.507 84.5242 42.736 84.5242H36.456L34.717 93.5954H27.3854L33.9268 59.4758H48.0254Z" fill="white"/>
<path d="M76.5502 85.2266C76.3433 85.2266 76.1472 85.1329 76.0158 84.9709C75.884 84.8092 75.8306 84.5964 75.8701 84.3904L78.7637 69.2937C79.039 67.858 78.9711 66.8275 78.5728 66.3921C78.3289 66.1259 77.5964 65.6795 75.4307 65.6795H70.1884L66.5503 84.6582C66.487 84.9883 66.2019 85.2266 65.8703 85.2266H58.5964C58.3895 85.2266 58.1934 85.1329 58.0618 84.9709C57.9302 84.8092 57.8768 84.5962 57.9163 84.3904L64.4577 50.2706C64.521 49.9407 64.8062 49.7024 65.1378 49.7024H72.4117C72.6186 49.7024 72.8146 49.7961 72.9462 49.9578C73.0779 50.1198 73.1312 50.3326 73.0917 50.5386L71.5132 58.7737H77.1526C81.4488 58.7737 84.3621 59.5415 86.0589 61.1212C87.7884 62.7327 88.3281 65.3094 87.663 68.7806L84.6195 84.6582C84.5563 84.9883 84.2713 85.2266 83.9395 85.2266H76.5502Z" fill="black"/>
<path d="M72.4117 49H65.1378C64.4744 49 63.9043 49.4766 63.7777 50.1365L57.2363 84.2564C57.1573 84.6681 57.264 85.094 57.5273 85.4177C57.7905 85.7415 58.1826 85.9288 58.5964 85.9288H65.8703C66.5335 85.9288 67.1038 85.4521 67.2304 84.7922L70.7595 66.3817H75.4307C77.5928 66.3817 78.0465 66.8499 78.0648 66.87C78.1959 67.013 78.3684 67.6755 78.0837 69.1597L75.1901 84.2564C75.1111 84.6681 75.2178 85.094 75.481 85.4177C75.7443 85.7415 76.1364 85.9288 76.5502 85.9288H83.9395C84.6027 85.9288 85.1731 85.4521 85.2996 84.7922L88.3429 68.9146C89.0571 65.1876 88.4461 62.3917 86.5276 60.6042C84.6969 58.8997 81.6304 58.0712 77.1526 58.0712H72.3533L73.7718 50.6726C73.8505 50.2608 73.7441 49.8348 73.4808 49.5113C73.2176 49.1875 72.8255 49 72.4117 49ZM72.4117 50.4046L70.6727 59.4758H77.1526C81.2299 59.4758 84.0423 60.1973 85.5901 61.6384C87.1379 63.0804 87.6016 65.417 86.983 68.6468L83.9395 84.5242H76.5502L79.4438 69.4277C79.7731 67.7104 79.6521 66.539 79.0803 65.9144C78.5084 65.2899 77.2917 64.9771 75.4307 64.9771H69.6171L65.8703 84.5242H58.5964L65.1378 50.4046H72.4117Z" fill="white"/>
<path d="M99.1723 78.4378C101.958 78.4378 104.038 77.9169 105.354 76.8902C106.656 75.8742 107.555 74.1135 108.027 71.6574C108.466 69.3619 108.299 67.759 107.529 66.894C106.742 66.0105 105.042 65.5625 102.474 65.5625H98.0214L95.5532 78.4378H99.1723ZM84.6103 94.2978C84.4036 94.2978 84.2073 94.2042 84.0759 94.0422C83.9443 93.8804 83.8907 93.6674 83.9302 93.4616L90.4716 59.3418C90.5351 59.012 90.8201 58.7737 91.1519 58.7737H105.25C109.681 58.7737 112.979 59.9933 115.052 62.3991C117.136 64.8173 117.779 68.1979 116.965 72.4468C116.633 74.1777 116.063 75.7852 115.269 77.2245C114.475 78.6653 113.426 79.9985 112.149 81.1877C110.622 82.6372 108.893 83.6883 107.015 84.3068C105.167 84.9171 102.793 85.2266 99.9607 85.2266H94.2517L92.6221 93.7294C92.5586 94.0595 92.2737 94.2978 91.9419 94.2978H84.6103Z" fill="black"/>
<path d="M98.5926 66.2646H102.474C105.573 66.2646 106.649 66.954 107.015 67.3649C107.622 68.047 107.737 69.4853 107.347 71.5238C106.908 73.8065 106.096 75.4248 104.932 76.3336C103.74 77.2639 101.802 77.7354 99.1724 77.7354H96.3938L98.5926 66.2646ZM105.25 58.0712H91.1517C90.4885 58.0712 89.9184 58.5479 89.7919 59.2078L83.2505 93.3276C83.1715 93.7394 83.2782 94.1652 83.5412 94.489C83.8044 94.8127 84.1965 95 84.6103 95H91.9419C92.6051 95 93.1755 94.5234 93.302 93.8635L94.8231 85.9288H99.9608C102.866 85.9288 105.312 85.6076 107.23 84.9743C109.202 84.3247 111.017 83.2231 112.623 81.7003C113.951 80.4617 115.045 79.0714 115.874 77.5673C116.703 76.0627 117.299 74.385 117.645 72.5806C118.502 68.1081 117.806 64.5269 115.573 61.9369C113.363 59.3719 109.89 58.0712 105.25 58.0712ZM94.7129 79.1399H99.1724C102.128 79.1399 104.33 78.5755 105.777 77.4465C107.224 76.3172 108.2 74.4325 108.707 71.7914C109.192 69.2557 108.971 67.4662 108.044 66.4238C107.115 65.3814 105.259 64.8601 102.474 64.8601H97.4505L94.7129 79.1399ZM105.25 59.4758C109.491 59.4758 112.585 60.6042 114.53 62.8611C116.475 65.118 117.06 68.2683 116.284 72.3128C115.965 73.9788 115.425 75.5021 114.665 76.8821C113.903 78.263 112.909 79.5257 111.681 80.6707C110.217 82.0596 108.59 83.0494 106.801 83.6388C105.011 84.2299 102.732 84.5242 99.9608 84.5242H93.6807L91.9419 93.5954H84.6103L91.1517 59.4758H105.25Z" fill="white"/>
<path d="M134 73C134 84.1596 127.215 94.3851 115.993 101.866C104.778 109.343 89.2271 114 72 114C54.7729 114 39.222 109.343 28.007 101.866C16.785 94.3851 10 84.1596 10 73C10 61.8404 16.785 51.6149 28.007 44.1336C39.222 36.6569 54.7729 32 72 32C89.2271 32 104.778 36.6569 115.993 44.1336C127.215 51.6149 134 61.8404 134 73Z" stroke="white" stroke-width="2"/>
</g>
<defs>
<clipPath id="clip0_2089_5282">
<rect width="144" height="144" fill="white"/>
</clipPath>
</defs>
</svg>
