<svg width="144" height="144" viewBox="0 0 144 144" fill="none" xmlns="http://www.w3.org/2000/svg">
<g clip-path="url(#clip0_2089_5372)">
<path d="M120 0H24C10.7452 0 0 10.7452 0 24V120C0 133.255 10.7452 144 24 144H120C133.255 144 144 133.255 144 120V24C144 10.7452 133.255 0 120 0Z" fill="white"/>
<path fill-rule="evenodd" clip-rule="evenodd" d="M118.297 44.7934C118.331 44.9219 118.349 45.0543 118.35 45.1873V65.8653C118.35 66.1307 118.28 66.3914 118.147 66.6211C118.014 66.8507 117.823 67.0412 117.594 67.1733L100.281 77.1655V96.9709C100.281 97.5099 99.9951 98.0074 99.5288 98.2788L63.3896 119.134C63.3069 119.181 63.2166 119.211 63.1264 119.243C63.0926 119.255 63.0606 119.275 63.0249 119.285C62.7723 119.351 62.5067 119.351 62.2541 119.285C62.2127 119.273 62.1751 119.251 62.1356 119.236C62.0529 119.206 61.9664 119.179 61.8875 119.134L25.7558 98.2788C25.5262 98.1466 25.3355 97.9561 25.2028 97.7265C25.0701 97.4969 25.0002 97.2363 25 96.9709V34.9369C25 34.8012 25.0188 34.6693 25.0526 34.5411C25.0639 34.4978 25.0902 34.4582 25.1053 34.4149C25.1335 34.3357 25.1598 34.2547 25.2012 34.1812C25.2294 34.1322 25.2707 34.0926 25.3046 34.0474C25.3478 33.9871 25.3873 33.9249 25.438 33.8721C25.4813 33.8288 25.5377 33.7967 25.5866 33.759C25.6411 33.7138 25.69 33.6648 25.752 33.629L43.8207 23.2014C44.0494 23.0695 44.3087 23 44.5727 23C44.8366 23 45.0959 23.0695 45.3247 23.2014L63.3915 33.629H63.3952C63.4554 33.6667 63.5062 33.7138 63.5607 33.7571C63.6096 33.7948 63.6641 33.8288 63.7073 33.8702C63.76 33.9249 63.7976 33.9871 63.8427 34.0474C63.8746 34.0926 63.9179 34.1322 63.9442 34.1812C63.9874 34.2566 64.0119 34.3357 64.042 34.4149C64.057 34.4582 64.0833 34.4978 64.0946 34.543C64.1292 34.6715 64.1469 34.8039 64.1472 34.9369V73.6827L79.2023 64.9928V45.1855C79.2023 45.0535 79.2211 44.9197 79.2549 44.7934C79.2681 44.7482 79.2925 44.7086 79.3076 44.6653C79.3376 44.5861 79.364 44.5051 79.4053 44.4316C79.4335 44.3826 79.4749 44.343 79.5068 44.2978C79.552 44.2375 79.5896 44.1753 79.6422 44.1225C79.6854 44.0792 79.74 44.0471 79.7888 44.0094C79.8452 43.9642 79.8941 43.9152 79.9543 43.8794L98.0248 33.4518C98.2535 33.3197 98.5129 33.2501 98.7768 33.2501C99.0408 33.2501 99.3001 33.3197 99.5288 33.4518L117.596 43.8794C117.66 43.9171 117.708 43.9642 117.765 44.0076C117.812 44.0453 117.866 44.0792 117.91 44.1206C117.962 44.1753 118 44.2375 118.045 44.2978C118.079 44.343 118.12 44.3826 118.146 44.4316C118.19 44.5051 118.214 44.5861 118.244 44.6653C118.261 44.7086 118.286 44.7482 118.297 44.7934ZM115.338 64.9928V47.7975L100.281 56.4875V73.6827L115.34 64.9928H115.338ZM97.271 96.0983V78.8918L64.1454 97.8473V115.216L97.271 96.0983ZM28.0118 37.5471V96.0983L61.1336 115.214V97.8491L43.8301 88.0322L43.8244 88.0284L43.8169 88.0246C43.7586 87.9907 43.7098 87.9417 43.6552 87.9003C43.6082 87.8626 43.5537 87.8324 43.5124 87.791L43.5086 87.7853C43.4597 87.7382 43.4259 87.6798 43.3845 87.627C43.3469 87.5761 43.3018 87.5328 43.2717 87.48L43.2698 87.4743C43.236 87.4178 43.2153 87.35 43.1909 87.2859C43.1664 87.2293 43.1345 87.1766 43.1194 87.1163C43.1006 87.0446 43.0969 86.9674 43.0894 86.8939C43.0818 86.8373 43.0668 86.7808 43.0668 86.7243V46.2371L28.0118 37.5471ZM44.5746 26.2507L29.5214 34.9369L44.5708 43.6231L59.6221 34.935L44.5708 26.2507H44.5746ZM61.1355 75.4203V37.5471L46.0786 46.2371V84.1103L61.1355 75.4203ZM98.7768 36.5011L83.7256 45.1873L98.7768 53.8735L113.826 45.1855L98.7768 36.5011ZM97.271 56.4875L82.214 47.7975V64.9928L97.271 73.6827V56.4875ZM62.6376 95.2371L95.75 76.2891L80.71 67.6086L47.6108 86.7111L62.6376 95.2371Z" fill="#FF2D20"/>
</g>
<defs>
<clipPath id="clip0_2089_5372">
<rect width="144" height="144" fill="white"/>
</clipPath>
</defs>
</svg>
