<svg width="144" height="144" viewBox="0 0 144 144" fill="none" xmlns="http://www.w3.org/2000/svg">
<g clip-path="url(#clip0_2089_5429)">
<path d="M120 0H24C10.7452 0 0 10.7452 0 24V120C0 133.255 10.7452 144 24 144H120C133.255 144 144 133.255 144 120V24C144 10.7452 133.255 0 120 0Z" fill="white"/>
<path d="M45.2475 56.6921H65.4287V58.2824H47.0974V70.2516H64.3355V71.8419H47.0974V84.9829H65.6389V86.5732H45.2475V56.6921ZM67.2366 56.6921H69.3808L78.8828 69.8331L88.595 56.6921L101.805 40L80.1021 71.2142L91.2858 86.5732H89.0575L78.8828 72.5952L68.6661 86.5732H66.4798L77.7476 71.2142L67.2366 56.6921ZM92.0846 58.2824V56.6921H115.083V58.2824H104.488V86.5732H102.638V58.2824H92.0846ZM20 56.6921H22.3124L54.1994 104L41.0221 86.5732L21.934 58.952L21.8499 86.5732H20V56.6921ZM111.896 84.503C111.518 84.503 111.235 84.2127 111.235 83.8375C111.235 83.4622 111.518 83.1719 111.896 83.1719C112.279 83.1719 112.558 83.4622 112.558 83.8375C112.558 84.2127 112.279 84.503 111.896 84.503ZM113.714 82.752H114.704C114.718 83.2836 115.109 83.6409 115.685 83.6409C116.328 83.6409 116.693 83.2568 116.693 82.5376V77.9815H117.701V82.5421C117.701 83.8375 116.945 84.5834 115.694 84.5834C114.52 84.5834 113.714 83.8598 113.714 82.752ZM119.019 82.694H120.018C120.103 83.3059 120.706 83.6945 121.575 83.6945C122.385 83.6945 122.979 83.2791 122.979 82.7074C122.979 82.216 122.601 81.9212 121.741 81.7202L120.904 81.5192C119.73 81.2467 119.195 80.6839 119.195 79.7369C119.195 78.5889 120.139 77.8251 121.557 77.8251C122.875 77.8251 123.838 78.5889 123.897 79.6744H122.916C122.821 79.0803 122.299 78.7095 121.543 78.7095C120.747 78.7095 120.216 79.0892 120.216 79.6699C120.216 80.13 120.558 80.3935 121.404 80.5901L122.119 80.7643C123.451 81.0725 124 81.6085 124 82.5778C124 83.8107 123.037 84.5834 121.498 84.5834C120.058 84.5834 119.091 83.8464 119.019 82.694Z" fill="black"/>
</g>
<defs>
<clipPath id="clip0_2089_5429">
<rect width="144" height="144" fill="white"/>
</clipPath>
</defs>
</svg>
