<svg width="144" height="144" viewBox="0 0 144 144" fill="none" xmlns="http://www.w3.org/2000/svg">
<g clip-path="url(#clip0_2089_5300)">
<path d="M120 0H24C10.7452 0 0 10.7452 0 24V120C0 133.255 10.7452 144 24 144H120C133.255 144 144 133.255 144 120V24C144 10.7452 133.255 0 120 0Z" fill="white"/>
<path d="M29.0359 71.4988C29.0359 88.307 38.8037 102.833 52.9676 109.716L32.7123 54.217C30.3562 59.4982 29.0359 65.3425 29.0359 71.4988Z" fill="#21759B"/>
<path d="M100.164 69.3559C100.164 64.1079 98.2795 60.4735 96.6627 57.6446C94.5102 54.1467 92.4927 51.1846 92.4927 47.6867C92.4927 43.7832 95.4531 40.1496 99.6231 40.1496C99.8114 40.1496 99.99 40.173 100.173 40.1835C92.6187 33.2621 82.5536 29.0362 71.4988 29.0362C56.6642 29.0362 43.6128 36.6476 36.0202 48.1763C37.0164 48.2062 37.9553 48.2272 38.7528 48.2272C43.1943 48.2272 50.0694 47.6883 50.0694 47.6883C52.3584 47.5534 52.6283 50.9155 50.3417 51.1862C50.3417 51.1862 48.0414 51.4569 45.4817 51.591L60.9449 97.5871L70.2375 69.7163L63.6217 51.5894C61.3351 51.4553 59.1689 51.1846 59.1689 51.1846C56.8807 51.0504 57.149 47.5517 59.4372 47.6867C59.4372 47.6867 66.4497 48.2256 70.6221 48.2256C75.0628 48.2256 81.9388 47.6867 81.9388 47.6867C84.2294 47.5517 84.4985 50.9139 82.2111 51.1846C82.2111 51.1846 79.9059 51.4553 77.351 51.5894L92.6963 97.2372L96.9317 83.0832C98.7675 77.2098 100.164 72.9912 100.164 69.3559Z" fill="#21759B"/>
<path d="M72.2437 75.2132L59.5034 112.235C63.3074 113.354 67.3304 113.965 71.4988 113.965C76.4437 113.965 81.1857 113.111 85.5997 111.558C85.4858 111.377 85.3824 111.183 85.2976 110.973L72.2437 75.2132Z" fill="#21759B"/>
<path d="M108.758 51.1256C108.941 52.4782 109.044 53.9302 109.044 55.4921C109.044 59.8012 108.239 64.6452 105.816 70.7021L92.8449 108.204C105.469 100.843 113.96 87.1653 113.96 71.4996C113.961 64.1168 112.075 57.1744 108.758 51.1256Z" fill="#21759B"/>
<path d="M71.4988 22C44.2059 22 22 44.205 22 71.4988C22 98.7958 44.2059 121 71.4988 121C98.7909 121 121 98.7958 121 71.4988C120.999 44.205 98.7909 22 71.4988 22ZM71.4988 118.731C45.4574 118.731 24.2696 97.5426 24.2696 71.4988C24.2696 45.4566 45.4566 24.2697 71.4988 24.2697C97.5393 24.2697 118.726 45.4566 118.726 71.4988C118.726 97.5426 97.5393 118.731 71.4988 118.731Z" fill="#21759B"/>
</g>
<defs>
<clipPath id="clip0_2089_5300">
<rect width="144" height="144" fill="white"/>
</clipPath>
</defs>
</svg>
