<svg width="144" height="144" viewBox="0 0 144 144" fill="none" xmlns="http://www.w3.org/2000/svg">
<g clip-path="url(#clip0_2089_5211)">
<path d="M120 0H24C10.7452 0 0 10.7452 0 24V120C0 133.255 10.7452 144 24 144H120C133.255 144 144 133.255 144 120V24C144 10.7452 133.255 0 120 0Z" fill="#09A1A1"/>
<path d="M73.1085 49.586L72.9878 49.5429V38.39L73.1128 38.2779L73.1559 38.209L114.363 64.9191L73.1041 49.5989L73.1085 49.586ZM73.1085 80.2694L73.1041 80.2565L114.363 64.9363L73.1516 91.6464L73.1128 91.5861H72.9878V80.3125L73.1085 80.2694Z" fill="#001717"/>
<path d="M92.1092 20.5273L114.363 64.9191L73.1559 38.209L73.1045 38.1746L73.1131 38.1531L91.9756 20.6523L92.1092 20.5273ZM114.363 64.9363L92.1092 109.328L91.9843 109.208L73.1131 91.7025L73.1045 91.681L73.1516 91.6464L114.363 64.9363Z" fill="#015051"/>
<path d="M73.1045 38.1746L73.1559 38.209L73.1128 38.2779L42.9336 38.2787L42.6621 38.1753L50.1994 20.6357L50.2382 20.653L91.9756 20.6523L73.1131 38.1531L73.1045 38.1746ZM73.1128 38.2779L72.9878 38.39L72.9878 38.2787L73.1128 38.2779ZM73.1128 91.5861L73.1516 91.6464L73.1045 91.681L73.1131 91.7025L91.9843 109.208L50.2382 109.208L50.1994 109.225L42.6621 91.6816L42.9164 91.5868H72.8542L72.9878 91.7118L72.9878 91.5861H73.1128Z" fill="#016B6B"/>
<path d="M73.1041 49.5989L114.363 64.9191V64.9363L73.1041 80.2565L73.1085 80.2694L72.9878 80.3125V49.5429L73.1085 49.586L73.1041 49.5989Z" fill="#015051"/>
<path d="M72.9878 91.5861L72.9878 91.7118L72.8542 91.5868L72.9878 91.5861Z" fill="#016B6B"/>
<path d="M72.9878 80.3125V91.5861L72.8542 91.5868L64.27 83.5791L72.9878 80.3125Z" fill="#002122"/>
<path d="M72.988 80.2738L72.9878 80.3125L64.27 83.5791L44.4766 64.9536V64.9019L64.2699 46.2764L72.9878 49.5429L72.988 80.2738Z" fill="#016B6B"/>
<path d="M72.9878 38.39V49.5429L64.2699 46.2764L72.9878 38.39Z" fill="#002122"/>
<path d="M72.9878 38.2787L72.9878 38.39L64.2699 46.2764L42.9336 38.2787H72.9878ZM72.8542 91.5868H42.9164L64.27 83.5791L72.8542 91.5868Z" fill="#013535"/>
<path d="M52.9866 116.288H56.4385L57.5633 120.619L57.9296 122.334H57.9899L58.3562 120.619L59.4164 116.288H62.8683V129.566H60.0499V126.441C60.0499 126.045 60.0671 125.545 60.1016 124.941C60.1361 124.334 60.1748 123.709 60.2136 123.063C60.2524 122.416 60.3041 121.791 60.3558 121.192C60.4119 120.593 60.4593 120.098 60.498 119.701H60.4377L59.3345 123.644L58.6407 126.036H57.128L56.4342 123.644L55.3913 119.701H55.3095C55.3482 120.098 55.3999 120.593 55.4517 121.192C55.5077 121.791 55.5551 122.416 55.5939 123.063C55.6327 123.709 55.6714 124.338 55.7059 124.941C55.7404 125.549 55.7576 126.049 55.7576 126.441V129.566H52.978L52.9866 116.288ZM74.2711 126.747H70.6339L69.9789 129.566H66.3848L70.3883 116.288H74.6374L78.6409 129.566H74.9218L74.2711 126.747ZM73.6376 124.028L73.4351 123.11C73.2842 122.468 73.1291 121.774 72.9653 121.029C72.8016 120.279 72.6378 119.572 72.4741 118.904H72.3922C72.2413 119.585 72.0905 120.296 71.9311 121.037C71.7759 121.778 71.6208 122.472 71.47 123.11L71.2674 124.028H73.6376ZM84.8896 122.744L81.274 116.288H85.1956L86.2557 118.451C86.4066 118.766 86.5617 119.102 86.7255 119.464C86.8892 119.826 87.0659 120.223 87.2555 120.658H87.3374C87.4882 120.223 87.6348 119.822 87.7856 119.464C87.9364 119.102 88.0786 118.766 88.2165 118.451L89.156 116.288H92.9139L89.2982 122.907L93.138 129.566H89.2163L87.9924 127.195C87.8028 126.842 87.6261 126.489 87.471 126.135C87.3159 125.782 87.1478 125.398 86.9711 124.993H86.8892C86.7384 125.403 86.5876 125.782 86.4281 126.135C86.273 126.489 86.1135 126.842 85.9498 127.195L84.8078 129.566H81.0499L84.8896 122.744Z" fill="white"/>
</g>
<defs>
<clipPath id="clip0_2089_5211">
<rect width="144" height="144" fill="white"/>
</clipPath>
</defs>
</svg>
