<svg width="144" height="144" viewBox="0 0 144 144" fill="none" xmlns="http://www.w3.org/2000/svg">
<g clip-path="url(#clip0_2089_5339)">
<path d="M120 0H24C10.7452 0 0 10.7452 0 24V120C0 133.255 10.7452 144 24 144H120C133.255 144 144 133.255 144 120V24C144 10.7452 133.255 0 120 0Z" fill="white"/>
<path d="M104.425 108.427H103.936V108.153H105.252V108.427H104.767V109.792H104.425V108.427ZM107.051 108.498H107.043L106.559 109.792H106.337L105.856 108.498H105.85V109.792H105.527V108.153H106.001L106.448 109.314L106.893 108.153H107.365V109.792H107.051L107.051 108.498Z" fill="#5382A1"/>
<path d="M60.6434 74.9177C60.6434 74.9177 57.2406 76.8965 63.065 77.5661C70.121 78.371 73.7272 78.2556 81.503 76.7839C81.503 76.7839 83.5473 78.0657 86.4023 79.176C68.9711 86.6467 46.9521 78.7433 60.6434 74.9177Z" fill="#5382A1"/>
<path d="M58.5134 65.1689C58.5134 65.1689 54.6969 67.9939 60.5255 68.5968C68.063 69.3744 74.0154 69.438 84.3155 67.4546C84.3155 67.4546 85.7402 68.8989 87.9803 69.6888C66.905 75.8515 43.4308 70.1748 58.5134 65.1689Z" fill="#5382A1"/>
<path d="M76.4699 48.6317C80.765 53.5766 75.3414 58.0265 75.3414 58.0265C75.3414 58.0265 86.2473 52.3965 81.2387 45.3465C76.5609 38.772 72.9736 35.5053 92.3937 24.2424C92.3937 24.2424 61.9106 31.8557 76.4699 48.6317Z" fill="#F8981D"/>
<path d="M99.5241 82.1285C99.5241 82.1285 102.042 84.2033 96.7509 85.8084C86.6894 88.8564 54.8738 89.7768 46.0355 85.9298C42.8584 84.5477 48.8164 82.6296 50.6906 82.2271C52.6451 81.8033 53.7621 81.8822 53.7621 81.8822C50.2288 79.3932 30.9244 86.7696 43.9564 88.8821C79.4966 94.6457 108.743 86.2867 99.5241 82.1285Z" fill="#5382A1"/>
<path d="M62.2797 55.068C62.2797 55.068 46.0962 58.9118 56.5487 60.3077C60.9621 60.8985 69.76 60.7649 77.955 60.0782C84.6525 59.5133 91.3775 58.3121 91.3775 58.3121C91.3775 58.3121 89.0159 59.3234 87.3074 60.4901C70.8734 64.8122 39.1259 62.8015 48.2656 58.3805C55.995 54.6441 62.2797 55.068 62.2797 55.068Z" fill="#5382A1"/>
<path d="M91.3108 71.2953C108.017 62.6143 100.293 54.2719 94.9012 55.3958C93.5798 55.6709 92.9906 55.9092 92.9906 55.9092C92.9906 55.9092 93.4811 55.1407 94.4181 54.8081C105.084 51.0583 113.287 65.8675 90.975 71.7329C90.975 71.7329 91.2335 71.502 91.3108 71.2953Z" fill="#5382A1"/>
<path d="M81.2387 6.05566C81.2387 6.05566 90.4907 15.3108 72.4636 29.5425C58.0077 40.9589 69.1672 47.4681 72.4576 54.9053C64.0194 47.292 57.827 40.59 61.9814 34.3524C68.079 25.1961 84.9717 20.7569 81.2387 6.05566Z" fill="#F8981D"/>
<path d="M63.9213 94.819C79.9569 95.8454 104.581 94.2494 105.165 86.6618C105.165 86.6618 104.044 89.5382 91.912 91.8225C78.2253 94.3982 61.3446 94.0975 51.3326 92.4468C51.3326 92.4468 53.3822 94.1431 63.9213 94.819Z" fill="#5382A1"/>
<path d="M61.2933 123.811C59.7806 125.124 58.1829 125.86 56.7491 125.86C54.7026 125.86 53.597 124.633 53.597 122.665C53.597 120.536 54.7816 118.979 59.5343 118.979H61.293L61.2933 123.811ZM65.4674 128.521V113.943C65.4674 110.219 63.3434 107.761 58.2222 107.761C55.2326 107.761 52.6137 108.5 50.4851 109.441L51.0995 112.022C52.7754 111.407 54.9448 110.834 57.0741 110.834C60.0242 110.834 61.2933 112.022 61.2933 114.477V116.32H59.8209C52.6533 116.32 49.42 119.102 49.42 123.278C49.42 126.882 51.5507 128.931 55.5626 128.931C58.1414 128.931 60.0664 127.866 61.8659 126.308L62.1926 128.521L65.4674 128.521Z" fill="#5382A1"/>
<path d="M79.3979 128.521H74.1918L67.9264 108.131H72.4727L76.3605 120.659L77.2247 124.426C79.1915 118.979 80.5826 113.452 81.2783 108.131H85.7008C84.5159 114.845 82.3838 122.215 79.3979 128.521Z" fill="#5382A1"/>
<path d="M99.369 123.811C97.8534 125.124 96.2529 125.86 94.8191 125.86C92.7762 125.86 91.6677 124.633 91.6677 122.665C91.6677 120.536 92.8552 118.979 97.6074 118.979H99.369V123.811ZM103.543 128.521V113.943C103.543 110.219 101.413 107.761 96.2982 107.761C93.3064 107.761 90.6866 108.5 88.559 109.441L89.1724 112.022C90.849 111.407 93.0225 110.834 95.1501 110.834C98.098 110.834 99.369 112.022 99.369 114.477V116.32H97.8943C90.7245 116.32 87.4926 119.102 87.4926 123.278C87.4926 126.882 89.6217 128.931 93.6328 128.931C96.213 128.931 98.1374 127.866 99.94 126.308L100.268 128.521L103.543 128.521Z" fill="#5382A1"/>
<path d="M44.8432 131.984C43.6533 133.721 41.7314 135.096 39.6273 135.873L37.5664 133.448C39.1679 132.626 40.5414 131.299 41.1796 130.063C41.7316 128.963 41.9601 127.546 41.9601 124.158V100.879H46.3948V123.839C46.3946 128.369 46.0324 130.199 44.8432 131.984Z" fill="#5382A1"/>
</g>
<defs>
<clipPath id="clip0_2089_5339">
<rect width="144" height="144" fill="white"/>
</clipPath>
</defs>
</svg>
