<svg width="144" height="144" viewBox="0 0 144 144" fill="none" xmlns="http://www.w3.org/2000/svg">
<g clip-path="url(#clip0_2089_5257)">
<path d="M120 0H24C10.7452 0 0 10.7452 0 24V120C0 133.255 10.7452 144 24 144H120C133.255 144 144 133.255 144 120V24C144 10.7452 133.255 0 120 0Z" fill="#00ACD7"/>
<path d="M20.9051 63.3227C20.6753 63.3227 20.6178 63.208 20.7327 63.036L21.9392 61.4878C22.0542 61.3158 22.3414 61.2011 22.5712 61.2011H43.0817C43.3115 61.2011 43.369 61.3731 43.2541 61.5452L42.2774 63.036C42.1625 63.208 41.8752 63.3801 41.7028 63.3801L20.9051 63.3227Z" fill="white"/>
<path d="M12.2298 68.5981C12 68.5981 11.9425 68.4834 12.0575 68.3114L13.264 66.7632C13.3789 66.5911 13.6661 66.4765 13.8959 66.4765H40.0942C40.324 66.4765 40.4389 66.6485 40.3814 66.8205L39.9218 68.1967C39.8644 68.426 39.6346 68.5407 39.4047 68.5407L12.2298 68.5981Z" fill="white"/>
<path d="M26.1333 73.8734C25.9035 73.8734 25.846 73.7014 25.9609 73.5294L26.7652 72.0959C26.8801 71.9238 27.11 71.7518 27.3398 71.7518H38.8302C39.06 71.7518 39.1749 71.9238 39.1749 72.1532L39.06 73.5294C39.06 73.7587 38.8302 73.9308 38.6579 73.9308L26.1333 73.8734Z" fill="white"/>
<path d="M85.7688 62.2906C82.1493 63.208 79.6788 63.8961 76.1168 64.8136C75.255 65.0429 75.1975 65.1003 74.4506 64.2402C73.5889 63.2654 72.9569 62.6346 71.7504 62.0612C68.1309 60.2837 64.6263 60.7997 61.3515 62.9213C57.4448 65.4443 55.4339 69.1715 55.4914 73.8161C55.5488 78.4033 58.7087 82.1878 63.2474 82.8186C67.1542 83.3346 70.429 81.9585 73.0143 79.0341C73.5314 78.4033 73.991 77.7152 74.5656 76.9125C72.4973 76.9125 69.9119 76.9125 63.4773 76.9125C62.2708 76.9125 61.9835 76.167 62.3857 75.1923C63.1325 73.4147 64.5114 70.433 65.3157 68.9421C65.4881 68.5981 65.8903 68.0247 66.752 68.0247C69.6821 68.0247 80.4831 68.0247 87.6647 68.0247C87.5498 69.5729 87.5498 71.1211 87.32 72.6693C86.688 76.7978 85.1368 80.5823 82.6089 83.908C78.4723 89.3554 73.0718 92.7385 66.235 93.656C60.6046 94.4014 55.3765 93.3119 50.7803 89.8715C46.5288 86.6604 44.1158 82.4172 43.4839 77.1418C42.737 70.8917 44.5755 65.2723 48.3673 60.341C52.4464 55.0083 57.8469 51.6252 64.454 50.4211C69.8545 49.4463 75.0252 50.077 79.6788 53.2308C82.7238 55.2377 84.907 57.99 86.3433 61.3158C86.688 61.8319 86.4582 62.1186 85.7688 62.2906Z" fill="white"/>
<path d="M104.785 94C99.5573 93.8853 94.7888 92.3945 90.7671 88.954C87.3774 86.0296 85.2517 82.3025 84.5623 77.8873C83.5281 71.4078 85.3091 65.6737 89.2159 60.5704C93.4099 55.0657 98.4657 52.1986 105.303 50.9945C111.163 49.9623 116.678 50.5357 121.676 53.9189C126.215 57.0152 129.03 61.2011 129.777 66.7058C130.754 74.4468 128.513 80.7543 123.17 86.1443C119.378 89.9862 114.725 92.3945 109.382 93.4839C107.83 93.7706 106.279 93.828 104.785 94ZM118.459 70.8344C118.402 70.0889 118.402 69.5155 118.287 68.9421C117.253 63.2654 112.024 60.0543 106.566 61.3158C101.223 62.52 97.7763 65.9031 96.5123 71.2931C95.4782 75.7657 97.6614 80.2956 101.798 82.1305C104.958 83.5067 108.118 83.3346 111.163 81.7864C115.701 79.4355 118.172 75.7657 118.459 70.8344Z" fill="white"/>
</g>
<defs>
<clipPath id="clip0_2089_5257">
<rect width="144" height="144" fill="white"/>
</clipPath>
</defs>
</svg>
