<svg width="146" height="146" viewBox="0 0 146 146" fill="none" xmlns="http://www.w3.org/2000/svg">
<g clip-path="url(#clip0_2041_534)">
<path d="M121 1H25C11.7452 1 1 11.7452 1 25V121C1 134.255 11.7452 145 25 145H121C134.255 145 145 134.255 145 121V25C145 11.7452 134.255 1 121 1Z" fill="white" stroke="#EBEFF6" stroke-width="1.5"/>
<path d="M53 20.0861L60.6389 14L93.8968 23.616C102.252 26.0318 108 33.6546 108 42.3193V78.9139L100.361 85V45.206C100.361 38.4367 95.8707 32.4815 89.3428 30.5941L53 20.0861Z" fill="black"/>
<path d="M45.5714 26L38 32.0873L78.7452 44.8265C81.5307 45.6975 83.4286 48.2884 83.4286 51.2205V96L91 89.9123V47.8489C91 43.0102 87.8418 38.7443 83.2299 37.3539L45.5714 26Z" fill="black"/>
<path d="M38 41L45.5 43.369V64.9677C45.5 71.6404 49.7426 77.5427 55.983 79.5517L74 85.3529V93L51.824 86.4052C43.632 83.9691 38 76.3126 38 67.6117V41Z" fill="black"/>
<path d="M55 46L62.3077 48.3549V59.384C62.3077 62.2876 64.0789 64.8653 66.7048 65.7836L74 68.3347V76L62.4284 72.2653C58.013 70.8401 55 66.5608 55 61.7148V46Z" fill="black"/>
<path d="M35.9516 124.656C41.042 124.656 44.1515 122.309 44.1515 118.498C44.1515 115.018 42.0326 113.306 37.1897 112.477C33.3099 111.787 32.5671 111.18 32.5671 109.909C32.5671 108.556 33.7502 107.783 35.8415 107.783C38.5656 107.783 40.0241 108.943 41.0145 110.075L43.8764 107.755C42.1978 105.794 39.6113 104.303 35.7865 104.303C31.3013 104.303 28.2745 106.485 28.2745 109.992C28.2745 113.416 30.4758 115.073 35.016 115.902C39.0884 116.62 39.8314 117.338 39.8314 118.774C39.8314 120.265 38.2354 121.149 36.0617 121.149C33.3924 121.149 31.604 120.1 30.0355 118.498L27.3114 121.011C29.375 123.386 32.457 124.656 35.9516 124.656Z" fill="black"/>
<path d="M54.3627 109.081C52.7944 109.081 51.3084 109.633 50.2354 111.014V109.467H46.3556V128.743H50.3453V122.806C51.2534 123.883 52.6293 124.518 54.3352 124.518C58.2425 124.518 60.8292 121.287 60.8292 116.758C60.8292 112.257 58.2425 109.081 54.3627 109.081ZM53.3447 112.284C55.4634 112.284 56.6467 113.886 56.6467 116.73C56.6467 119.74 55.3258 121.315 53.3447 121.315C51.501 121.315 50.1253 119.906 50.1253 116.786C50.1253 113.748 51.446 112.284 53.3447 112.284Z" fill="black"/>
<path d="M85.0203 105.905H81.0029V109.467H79.0216V112.339H81.0029V120.1C81.0029 122.834 82.186 124.518 85.653 124.518C86.8638 124.518 87.937 124.325 88.8176 124.049V120.956C88.1847 121.121 87.4967 121.259 86.7262 121.259C85.4053 121.259 85.0203 120.679 85.0203 119.464V112.339H88.5424V109.467H85.0203V105.905Z" fill="black"/>
<path d="M92.9684 102.757C91.7026 102.757 90.6021 103.751 90.6021 105.021C90.6021 106.292 91.7026 107.313 92.9684 107.313C94.2343 107.313 95.3348 106.292 95.3348 105.021C95.3348 103.751 94.2343 102.757 92.9684 102.757ZM94.977 109.467H90.9596V124.132H94.977V109.467Z" fill="black"/>
<path d="M119 103.798H114.983V124.132H119V103.798Z" fill="black"/>
<path fill-rule="evenodd" clip-rule="evenodd" d="M62.3793 116.813C62.3793 112.174 65.0483 109.081 68.9006 109.081C70.7718 109.081 72.0925 109.744 73.0006 110.876V109.467H76.9079V124.131H72.8905V122.695C71.8448 124.021 70.3315 124.518 68.8731 124.518C64.9657 124.518 62.3793 121.342 62.3793 116.813ZM73.1382 116.703C73.1382 113.693 71.7347 112.284 69.8637 112.284C67.7999 112.284 66.5893 113.858 66.5893 116.841C66.5893 119.796 67.7999 121.315 69.8637 121.315C71.8723 121.315 73.1382 119.823 73.1382 116.703Z" fill="black"/>
<path fill-rule="evenodd" clip-rule="evenodd" d="M97.2775 116.813C97.2775 112.174 99.9467 109.081 103.799 109.081C105.67 109.081 106.991 109.744 107.899 110.876V109.467H111.806V124.131H107.789V122.695C106.743 124.021 105.23 124.518 103.771 124.518C99.8642 124.518 97.2775 121.342 97.2775 116.813ZM108.037 116.703C108.037 113.693 106.633 112.284 104.762 112.284C102.698 112.284 101.488 113.858 101.488 116.841C101.488 119.796 102.698 121.315 104.762 121.315C106.771 121.315 108.037 119.823 108.037 116.703Z" fill="black"/>
</g>
<defs>
<clipPath id="clip0_2041_534">
<rect width="146" height="146" fill="white"/>
</clipPath>
</defs>
</svg>
