<svg width="144" height="144" viewBox="0 0 144 144" fill="none" xmlns="http://www.w3.org/2000/svg">
<g clip-path="url(#clip0_2089_5411)">
<path d="M120 0H24C10.7452 0 0 10.7452 0 24V120C0 133.255 10.7452 144 24 144H120C133.255 144 144 133.255 144 120V24C144 10.7452 133.255 0 120 0Z" fill="white"/>
<path d="M131 71.9999C131 64.1132 121.128 56.6388 105.992 52.0038C109.485 36.5697 107.933 24.2903 101.092 20.359C99.5154 19.4368 97.6724 19 95.6591 19L95.6835 24.3874C96.7992 24.3874 97.6724 24.6301 98.4241 25.0426C101.723 26.9355 103.154 34.1429 102.038 43.4131C101.772 45.6942 101.335 48.0967 100.801 50.5477C96.0469 49.3829 90.8562 48.485 85.3987 47.9026C82.1243 43.4131 78.7284 39.3361 75.3081 35.7688C83.2156 28.4158 90.6382 24.3874 95.6835 24.3874L95.6591 19C88.9882 19 80.2807 23.7322 71.4517 31.9831C62.6222 23.7807 53.8903 19.0728 47.22 19.0728V24.5088C52.2409 24.5088 59.6873 28.4886 67.5948 35.7931C64.1989 39.3604 60.803 43.4131 57.5769 47.9026C52.095 48.485 46.9043 49.3829 42.1503 50.572C41.5922 48.1453 41.1799 45.7913 40.8887 43.5344C39.7491 34.2643 41.1555 27.0568 44.4305 25.1397C45.1578 24.7029 46.1038 24.5088 47.22 24.5088V19.0728C45.1822 19.0728 43.3387 19.5339 41.7381 20.4561C34.9219 24.3874 33.394 36.6424 36.9108 52.028C21.8237 56.6874 12 64.1376 12 71.9999C12 79.8873 21.8722 87.3617 37.0079 91.9964C33.5149 107.431 35.0672 119.71 41.9078 123.641C43.4846 124.563 45.3276 125 47.3653 125C54.0356 125 62.7681 120.244 71.5971 111.993C80.4261 120.195 89.1585 124.903 95.8288 124.903C97.866 124.903 99.7096 124.467 101.311 123.544C108.126 119.613 109.655 107.358 106.137 91.9725C121.176 87.3372 131 79.8629 131 71.9999ZM99.4189 55.8137C98.5212 58.9445 97.4056 62.1716 96.144 65.3992C95.1498 63.4582 94.1068 61.5166 92.9666 59.575C91.851 57.6338 90.662 55.741 89.4737 53.8966C92.9178 54.4062 96.241 55.0372 99.4189 55.8137ZM88.3092 81.6585C86.4173 84.935 84.4772 88.0411 82.4638 90.929C78.8494 91.2443 75.1872 91.4141 71.5 91.4141C67.8373 91.4141 64.1745 91.2443 60.585 90.9529C58.5716 88.0649 56.6066 84.9833 54.7147 81.7312C52.8711 78.5524 51.1979 75.3247 49.6694 72.0732C51.1735 68.8211 52.8711 65.5691 54.6908 62.3903C56.5827 59.1143 58.5228 56.0079 60.5362 53.1201C64.1506 52.8046 67.8128 52.6347 71.5 52.6347C75.1628 52.6347 78.8255 52.8046 82.415 53.0958C84.4284 55.9836 86.3934 59.0655 88.2853 62.3176C90.1289 65.4964 91.8021 68.724 93.3306 71.9761C91.8021 75.2276 90.1289 78.4797 88.3092 81.6585ZM96.144 78.5041C97.4173 81.6666 98.5345 84.8898 99.4916 88.1621C96.3137 88.9386 92.9667 89.5941 89.4981 90.1036C90.6864 88.2353 91.8748 86.3182 92.9911 84.3521C94.1067 82.4111 95.1498 80.4451 96.144 78.5041ZM71.5483 104.397C69.2925 102.067 67.0367 99.4708 64.8053 96.6316C66.9884 96.7288 69.2198 96.8015 71.4756 96.8015C73.7558 96.8015 76.0116 96.7532 78.2191 96.6316C76.137 99.3386 73.9101 101.931 71.5483 104.397ZM53.5019 90.1036C50.0578 89.5941 46.7345 88.963 43.5572 88.1865C44.4543 85.056 45.5706 81.8283 46.8316 78.6007C47.8264 80.5422 48.8694 82.4838 50.0089 84.4249C51.149 86.3664 52.3136 88.2592 53.5019 90.1036ZM71.4273 39.6031C73.6831 41.9327 75.9389 44.5294 78.1703 47.3687C75.9872 47.2716 73.7558 47.1988 71.5 47.1988C69.2198 47.1988 66.964 47.2473 64.757 47.3687C66.839 44.6618 69.0656 42.0695 71.4273 39.6031ZM53.4775 53.8966C52.2891 55.7652 51.1008 57.6823 49.9851 59.6477C48.8694 61.5893 47.8264 63.5309 46.8316 65.4719C45.5582 62.3094 44.4412 59.0861 43.4846 55.8137C46.6619 55.0615 50.0089 54.4062 53.4775 53.8966ZM31.526 84.2794C22.9395 80.615 17.3848 75.8104 17.3848 71.9999C17.3848 68.19 22.9395 63.3611 31.526 59.721C33.612 58.8229 35.8922 58.0221 38.2451 57.2698C39.6276 62.0261 41.4468 66.9767 43.7026 72.0488C41.4712 77.0965 39.6759 82.0226 38.3178 86.755C35.9166 86.0023 33.6364 85.1775 31.526 84.2794ZM44.5758 118.958C41.277 117.065 39.8457 109.858 40.9619 100.587C41.2288 98.3063 41.6648 95.9034 42.1986 93.4523C46.9531 94.6174 52.1438 95.5154 57.6013 96.0977C60.8757 100.587 64.2716 104.664 67.6919 108.231C59.7844 115.585 52.3618 119.613 47.3165 119.613C46.2252 119.589 45.3037 119.37 44.5758 118.958ZM102.111 100.466C103.251 109.736 101.844 116.943 98.5695 118.861C97.8422 119.297 96.8962 119.492 95.78 119.492C90.7591 119.492 83.3127 115.487 75.4052 108.183C78.8011 104.616 82.197 100.563 85.4231 96.0733C90.905 95.491 96.0957 94.5929 100.85 93.404C101.408 95.8551 101.844 98.2091 102.111 100.466ZM111.45 84.2794C109.364 85.1775 107.083 85.9785 104.73 86.7306C103.348 81.9743 101.529 77.0237 99.273 71.9517C101.505 66.904 103.3 61.9779 104.658 57.2455C107.06 57.9978 109.339 58.8229 111.474 59.721C120.061 63.3849 125.615 68.19 125.615 71.9999C125.591 75.8104 120.036 80.6394 111.45 84.2794Z" fill="#61DAFB"/>
<path d="M71.4756 83.0906C77.598 83.0906 82.5609 78.1254 82.5609 72C82.5609 65.8752 77.598 60.91 71.4756 60.91C65.3536 60.91 60.3908 65.8752 60.3908 72C60.3908 78.1254 65.3536 83.0906 71.4756 83.0906Z" fill="#61DAFB"/>
</g>
<defs>
<clipPath id="clip0_2089_5411">
<rect width="144" height="144" fill="white"/>
</clipPath>
</defs>
</svg>
