<svg width="146" height="146" viewBox="0 0 146 146" fill="none" xmlns="http://www.w3.org/2000/svg">
<g clip-path="url(#clip0_2041_534)">
<path d="M121 1H25C11.7452 1 1 11.7452 1 25V121C1 134.255 11.7452 145 25 145H121C134.255 145 145 134.255 145 121V25C145 11.7452 134.255 1 121 1Z" fill="white" stroke="#EBEFF6" stroke-width="1.5"/>
<path fill-rule="evenodd" clip-rule="evenodd" d="M38.4 13L132.9 38.3L122.7 76.5L66.3 61.4L63.4 72.2L25.3 62L38.4 13ZM107.5 132.9L13 107.6L23.2 69.4L79.5 84.5L82.4 73.7L120.6 83.9L107.5 132.9Z" fill="#009FFF"/>
</g>
<defs>
<clipPath id="clip0_2041_534">
<rect width="146" height="146" fill="white"/>
</clipPath>
</defs>
</svg>
