<svg width="146" height="146" viewBox="0 0 146 146" fill="none" xmlns="http://www.w3.org/2000/svg">
<g clip-path="url(#clip0_2041_534)">
<path d="M121 1H25C11.7452 1 1 11.7452 1 25V121C1 134.255 11.7452 145 25 145H121C134.255 145 145 134.255 145 121V25C145 11.7452 134.255 1 121 1Z" fill="white" stroke="#EBEFF6" stroke-width="1.5"/>
<path d="M73.5 18C43.4024 18 19 42.4024 19 72.5C19 102.598 43.4024 127 73.5 127C103.598 127 128 102.598 128 72.5C128 42.4024 103.598 18 73.5 18ZM73.5 26.3839C98.9106 26.4157 119.498 47.0258 119.498 72.441C119.498 97.8788 98.8788 118.498 73.441 118.498C48.0031 118.498 27.3839 97.8788 27.3839 72.441C27.3839 59.7243 32.5387 48.2112 40.8727 39.8772C49.2157 31.5432 60.7379 26.3885 73.4637 26.3885H73.4955L73.5 26.3839ZM73.5 38.9643C53.553 42.4796 35.7678 60.8733 35.7678 80.8839C45.5279 63.6528 52.0452 62.413 53.8482 62.413C55.6512 62.413 56.6005 63.3485 56.6005 65.4241V91.1027C56.6005 94.2955 50.3965 93.7732 48.3437 93.4598C55.9283 104.746 73.5 106.04 73.5 106.04L81.8839 97.6563L90.2678 101.848C103.502 95.7897 111.228 82.8187 111.228 80.8885C108.044 84.8306 103.752 87.7691 98.8243 89.227L98.6472 89.2724C97.5345 89.2724 94.4552 88.7001 94.4552 87.1741V56.7767C94.4552 54.138 100.55 46.0857 102.839 43.1517C87.7063 47.1166 83.3191 54.0245 83.3191 54.0245C83.3191 54.0245 82.17 51.5357 77.6874 51.5357C79.9628 53.6839 81.4933 56.5951 81.8748 59.856L81.8794 59.9196V85.5982C79.495 87.2922 76.6837 88.5639 73.6453 89.236L73.4909 89.2633C70.5842 89.2633 69.1672 88.0825 69.1672 85.857C69.1672 83.6316 69.299 55.7276 69.299 55.7276C69.299 55.7276 65.107 57.2672 65.107 48.6517C65.107 44.3417 73.4909 38.9552 73.4909 38.9552L73.5 38.9643Z" fill="url(#paint0_linear_2041_534)"/>
</g>
<defs>
<linearGradient id="paint0_linear_2041_534" x1="45" y1="18" x2="99.5" y2="127" gradientUnits="userSpaceOnUse">
<stop stop-color="#FF007A"/>
<stop offset="1" stop-color="#FF7A00"/>
</linearGradient>
<clipPath id="clip0_2041_534">
<rect width="146" height="146" fill="white"/>
</clipPath>
</defs>
</svg>
