<svg width="146" height="146" viewBox="0 0 146 146" fill="none" xmlns="http://www.w3.org/2000/svg">
<rect x="1" y="1" width="144" height="144" rx="24" fill="white" stroke="#EBEFF6" stroke-width="1.5"/>
<g clip-path="url(#clip0_1208_2784)">
<mask id="mask0_1208_2784" style="mask-type:alpha" maskUnits="userSpaceOnUse" x="32" y="32" width="81" height="81">
<path fill-rule="evenodd" clip-rule="evenodd" d="M72.918 32.7271C94.9946 32.7271 112.918 50.6504 112.918 72.7269C112.918 94.8035 94.9946 112.727 72.918 112.727C50.8414 112.727 32.918 94.8035 32.918 72.7269C32.918 50.6504 50.8414 32.7271 72.918 32.7271ZM72.918 64.2026L61.0916 77.2722H84.7444L72.918 64.2026Z" fill="url(#paint0_linear_1208_2784)"/>
</mask>
<g mask="url(#mask0_1208_2784)">
<path fill-rule="evenodd" clip-rule="evenodd" d="M72.918 32.7271C94.9946 32.7271 112.918 50.6504 112.918 72.7269C112.918 94.8035 94.9946 112.727 72.918 112.727C50.8414 112.727 32.918 94.8035 32.918 72.7269C32.918 50.6504 50.8414 32.7271 72.918 32.7271ZM72.918 64.2026L61.0916 77.2722H84.7444L72.918 64.2026Z" fill="url(#paint1_linear_1208_2784)"/>
<path d="M114.923 -19.2184L180.467 53.8672L128.188 100.751L62.6443 27.6652L114.923 -19.2184Z" fill="url(#paint2_linear_1208_2784)"/>
<path d="M49.3757 168.392L-16.168 95.3062L36.1109 48.4225L101.655 121.508L49.3757 168.392Z" fill="url(#paint3_linear_1208_2784)"/>
<path d="M61.1315 156.367L-4.41211 83.2817L47.8668 36.3981L113.41 109.484L61.1315 156.367Z" fill="url(#paint4_linear_1208_2784)"/>
<path d="M119.751 177.119L21.5801 177.119L21.5801 106.897L119.751 106.897L119.751 177.119Z" fill="url(#paint5_linear_1208_2784)"/>
<path d="M106.82 175.798L173.137 103.413L121.359 55.9762L55.0425 128.362L106.82 175.798Z" fill="url(#paint6_linear_1208_2784)"/>
<path d="M38.6894 -26.6923L-27.627 45.6934L24.1509 93.1298L90.4673 20.7441L38.6894 -26.6923Z" fill="url(#paint7_linear_1208_2784)"/>
<path d="M50.4374 -14.9453L-15.8789 57.4404L35.899 104.877L102.215 32.4912L50.4374 -14.9453Z" fill="url(#paint8_linear_1208_2784)"/>
<path d="M114.7 77.2764H31.7871V92.8542H114.7V77.2764Z" fill="url(#paint9_linear_1208_2784)"/>
</g>
</g>
<defs>
<linearGradient id="paint0_linear_1208_2784" x1="48.4947" y1="56.0803" x2="99.3873" y2="100.67" gradientUnits="userSpaceOnUse">
<stop stop-color="#01BB99"/>
<stop offset="1" stop-color="#206ED4"/>
</linearGradient>
<linearGradient id="paint1_linear_1208_2784" x1="48.4947" y1="56.0803" x2="99.3873" y2="100.67" gradientUnits="userSpaceOnUse">
<stop stop-color="#01BB99"/>
<stop offset="1" stop-color="#206ED4"/>
</linearGradient>
<linearGradient id="paint2_linear_1208_2784" x1="110.753" y1="75.405" x2="96.6092" y2="28.941" gradientUnits="userSpaceOnUse">
<stop stop-color="#094FCF" stop-opacity="0.4"/>
<stop offset="0.53" stop-color="#094FCF" stop-opacity="0.111373"/>
<stop offset="1" stop-color="#094FCF" stop-opacity="0"/>
</linearGradient>
<linearGradient id="paint3_linear_1208_2784" x1="67.0502" y1="82.9675" x2="55.6127" y2="93.435" gradientUnits="userSpaceOnUse">
<stop stop-color="#094FCF" stop-opacity="0.1"/>
<stop offset="0.53" stop-color="#094FCF" stop-opacity="0.027451"/>
<stop offset="1" stop-color="#094FCF" stop-opacity="0"/>
</linearGradient>
<linearGradient id="paint4_linear_1208_2784" x1="78.908" y1="70.969" x2="68.1015" y2="81.4833" gradientUnits="userSpaceOnUse">
<stop stop-color="#094FCF" stop-opacity="0.1"/>
<stop offset="0.53" stop-color="#094FCF" stop-opacity="0.027451"/>
<stop offset="1" stop-color="#094FCF" stop-opacity="0"/>
</linearGradient>
<linearGradient id="paint5_linear_1208_2784" x1="68.9364" y1="107.137" x2="69.5226" y2="142.87" gradientUnits="userSpaceOnUse">
<stop stop-color="#5994FE" stop-opacity="0.2"/>
<stop offset="1" stop-color="#5994FE" stop-opacity="0"/>
</linearGradient>
<linearGradient id="paint6_linear_1208_2784" x1="90.2457" y1="90.6282" x2="101.665" y2="101.004" gradientUnits="userSpaceOnUse">
<stop stop-color="#094FCF" stop-opacity="0.3"/>
<stop offset="1" stop-color="#094FCF" stop-opacity="0"/>
</linearGradient>
<linearGradient id="paint7_linear_1208_2784" x1="56.033" y1="58.2269" x2="48.0858" y2="50.4948" gradientUnits="userSpaceOnUse">
<stop stop-color="#094FCF" stop-opacity="0.05"/>
<stop offset="0.53" stop-color="#094FCF" stop-opacity="0.0137255"/>
<stop offset="1" stop-color="#094FCF" stop-opacity="0"/>
</linearGradient>
<linearGradient id="paint8_linear_1208_2784" x1="67.6811" y1="69.7372" x2="60.2879" y2="61.9307" gradientUnits="userSpaceOnUse">
<stop stop-color="#094FCF" stop-opacity="0.05"/>
<stop offset="0.53" stop-color="#094FCF" stop-opacity="0.0137255"/>
<stop offset="1" stop-color="#094FCF" stop-opacity="0"/>
</linearGradient>
<linearGradient id="paint9_linear_1208_2784" x1="111.27" y1="84.3101" x2="46.0732" y2="84.0633" gradientUnits="userSpaceOnUse">
<stop stop-color="#094FCF" stop-opacity="0.4"/>
<stop offset="1" stop-color="#094FCF" stop-opacity="0"/>
</linearGradient>
<clipPath id="clip0_1208_2784">
<rect width="80" height="79.9998" fill="white" transform="translate(32.918 32.7271)"/>
</clipPath>
</defs>
</svg>
