<svg width="80" height="79" viewBox="0 0 80 79" fill="none" xmlns="http://www.w3.org/2000/svg">
<path d="M65.8333 0H14.1667C6.34263 0 0 6.34297 0 14.1674V63.8368C0 71.6612 6.34263 78.0042 14.1667 78.0042H65.8333C73.6574 78.0042 80 71.6612 80 63.8368V14.1674C80 6.34297 73.6574 0 65.8333 0Z" fill="#001E36"/>
<path d="M18.0117 54.6997V20.4049C18.0117 20.155 18.1191 20.0292 18.3338 20.0292C18.9056 20.0292 19.4277 20.0208 20.2151 20.0024C21.0017 19.9848 21.8515 19.9669 22.7643 19.9487C23.6767 19.9311 24.6428 19.9132 25.6624 19.895C26.6819 19.8774 27.6926 19.8685 28.6944 19.8682C31.413 19.8682 33.7028 20.2081 35.5637 20.8879C37.2424 21.4558 38.7733 22.3908 40.045 23.625C41.123 24.6948 41.9561 25.9858 42.4868 27.4088C42.9888 28.7936 43.2432 30.2561 43.2382 31.7292C43.2382 34.5921 42.5763 36.9536 41.2526 38.8135C39.92 40.6812 38.047 42.0954 35.8859 42.8656C33.6318 43.7067 31.1271 43.992 28.3725 43.992C27.5851 43.992 27.0305 43.983 26.7088 43.9651C26.3868 43.9474 25.9039 43.9385 25.2599 43.9382V54.6461C25.2693 54.7117 25.2632 54.7786 25.2422 54.8415C25.2213 54.9044 25.186 54.9615 25.1391 55.0084C25.0922 55.0552 25.0351 55.0905 24.9722 55.1115C24.9093 55.1325 24.8424 55.1385 24.7768 55.1291H18.3874C18.1367 55.1291 18.0117 54.9865 18.0117 54.6997ZM25.2599 26.4695V37.6551C25.7244 37.6912 26.1537 37.709 26.5478 37.7087H28.3188C29.6219 37.7044 30.9164 37.4978 32.156 37.0962C33.2192 36.7803 34.1693 36.1656 34.893 35.3251C35.5906 34.5024 35.9395 33.3575 35.9396 31.8902C35.9679 30.8521 35.6977 29.8276 35.1612 28.9383C34.5973 28.0785 33.7822 27.4133 32.8268 27.0331C31.5793 26.5482 30.2468 26.32 28.9091 26.3623C28.0504 26.3623 27.2901 26.3712 26.6284 26.389C25.9659 26.4075 25.5098 26.4344 25.2599 26.4695Z" fill="#31A8FF"/>
<path d="M63.9886 35.6203C62.98 35.102 61.9059 34.7228 60.7954 34.4932C59.5719 34.2124 58.3209 34.0684 57.0656 34.0638C56.3866 34.0454 55.7085 34.1268 55.0531 34.3053C54.6359 34.3982 54.2651 34.6359 54.0065 34.9762C53.8316 35.2484 53.7385 35.565 53.7383 35.8886C53.7481 36.2025 53.8613 36.5043 54.0602 36.7473C54.3737 37.114 54.7568 37.415 55.1872 37.6328C55.9524 38.0449 56.7408 38.4123 57.5485 38.7331C59.3497 39.336 61.0707 40.156 62.6737 41.175C63.7657 41.8643 64.6693 42.814 65.3034 43.939C65.8366 45.0042 66.1036 46.1828 66.0816 47.3739C66.1137 48.9466 65.6643 50.4915 64.7937 51.8016C63.8615 53.1315 62.5668 54.1654 61.0637 54.7802C59.4353 55.4956 57.4228 55.8534 55.0262 55.8537C53.5038 55.8691 51.9839 55.7251 50.4914 55.4243C49.3155 55.2087 48.1708 54.8481 47.0835 54.3509C46.9662 54.2903 46.8686 54.1976 46.802 54.0835C46.7355 53.9694 46.7028 53.8388 46.7079 53.7068V47.9105C46.7014 47.8538 46.7105 47.7964 46.7341 47.7444C46.7578 47.6924 46.7951 47.6478 46.8421 47.6154C46.8882 47.5893 46.9412 47.5779 46.9939 47.5827C47.0466 47.5875 47.0966 47.6083 47.1372 47.6422C48.4212 48.3994 49.8154 48.9516 51.2696 49.2791C52.5513 49.6004 53.866 49.7715 55.1872 49.789C56.4392 49.789 57.3604 49.628 57.951 49.306C58.2177 49.1839 58.4433 48.9871 58.6005 48.7394C58.7577 48.4918 58.8397 48.2039 58.8366 47.9105C58.8366 47.446 58.5683 46.9988 58.0316 46.5688C57.495 46.1395 56.4037 45.6206 54.7579 45.0124C53.0728 44.4258 51.475 43.6134 50.0083 42.5973C48.9593 41.8677 48.0955 40.9027 47.486 39.7796C46.9583 38.722 46.6914 37.5534 46.7079 36.3716C46.7049 34.9516 47.095 33.5584 47.8348 32.3464C48.6785 31.0117 49.8899 29.9494 51.3233 29.2872C52.8972 28.5006 54.865 28.1071 57.2266 28.1065C58.6097 28.0954 59.9915 28.1941 61.359 28.4017C62.3492 28.5273 63.3173 28.7891 64.2358 29.1799C64.3087 29.2008 64.3757 29.2383 64.4316 29.2895C64.4874 29.3408 64.5306 29.4043 64.5578 29.475C64.5941 29.6061 64.6121 29.7416 64.6115 29.8776V35.2982C64.6152 35.3613 64.6023 35.4242 64.574 35.4807C64.5458 35.5373 64.5032 35.5854 64.4505 35.6202C64.3788 35.6559 64.2997 35.6745 64.2196 35.6745C64.1394 35.6745 64.0604 35.6559 63.9886 35.6203Z" fill="#31A8FF"/>
</svg>
