<svg width="146" height="146" viewBox="0 0 146 146" fill="none" xmlns="http://www.w3.org/2000/svg">
<rect x="1" y="1" width="144" height="144" rx="24" fill="white" stroke="#EBEFF6" stroke-width="1.5"/>
<path d="M80.0057 109.719L66.1035 96.1625L95.9602 65.6733L110.354 79.7803L80.0057 109.719Z" fill="#8AB4F8"/>
<path d="M80.0659 49.7825L66.2138 35.6392L35.9248 65.6414C34.0519 67.5183 33 70.0616 33 72.7131C33 75.3647 34.0519 77.9079 35.9248 79.7848L65.7587 109.814L79.8657 96.6175L57.1353 72.7131L80.0659 49.7825Z" fill="#4285F4"/>
<path d="M110.154 65.8738L80.1197 35.8396C78.234 34.003 75.7008 32.9829 73.0685 33.0002C70.4362 33.0176 67.9167 34.0709 66.0553 35.9323C64.194 37.7936 63.1406 40.3132 63.1233 42.9455C63.1059 45.5777 64.126 48.1109 65.9627 49.9966L95.9968 80.0308C96.9219 80.9805 98.0264 81.7371 99.2462 82.2565C100.466 82.776 101.777 83.0479 103.103 83.0567C104.428 83.0654 105.743 82.8107 106.969 82.3074C108.196 81.8041 109.31 81.0621 110.248 80.1246C111.185 79.1871 111.927 78.0728 112.43 76.8462C112.934 75.6197 113.188 74.3054 113.18 72.9796C113.171 71.6538 112.899 70.343 112.38 69.1231C111.86 67.9033 111.104 66.7988 110.154 65.8738Z" fill="#8AB4F8"/>
<path d="M72.8112 113C78.2147 113 82.595 108.619 82.595 103.216C82.595 97.8125 78.2147 93.4321 72.8112 93.4321C67.4077 93.4321 63.0273 97.8125 63.0273 103.216C63.0273 108.619 67.4077 113 72.8112 113Z" fill="#1967D2"/>
</svg>
